<svg width="381" height="497" viewBox="0 0 381 497" fill="none" xmlns="http://www.w3.org/2000/svg">
<g filter="url(#filter0_d_45_24)">
<path d="M344.152 377.052L322.99 393.657L338.193 407.078L348.821 380.543C349.329 379.277 348.921 377.826 347.827 377.009C346.734 376.191 345.226 376.209 344.152 377.052Z" fill="#5C3F3F"/>
<path d="M321.346 451.857L319.398 450.284L307.975 443.83L300.125 463.851H307.372C307.88 463.851 308.381 463.723 308.827 463.478L320.903 456.844C321.784 456.36 322.367 455.469 322.456 454.469C322.545 453.468 322.128 452.489 321.346 451.857Z" fill="#5C3F3F"/>
<path d="M142.552 4.15491C134.859 3.25768 128.648 3.17244 122.484 3.96057C115.879 4.45359 109.449 5.84314 101.687 9.30917C93.0675 13.6749 89.1461 24.5062 88.7606 25.0735C88.3752 25.6408 85.7915 38.0311 87.6178 48.27C87.6178 48.27 87.6352 48.4115 87.6579 48.4997C87.6805 48.5878 87.7334 48.72 87.7334 48.72C87.7334 48.72 96.5616 71.1141 102.719 79.4359L73.011 85.139L68.113 79.4983C63.9071 74.507 60.2312 70.7353 56.1563 68.6633C51.9151 66.5067 47.5659 66.3365 42.3928 67.6715C36.4447 68.1101 31.9646 69.8906 27.9594 73.2498C24.0499 76.5289 20.7054 81.2303 16.8189 87.0825L16.6608 87.3216L16.55 87.5866C10.7952 101.349 10.4787 101.626 10.4787 114.893L11.6864 122.733L12.9811 126.822C16.4925 134.259 21.5639 138.59 28.522 141.344C28.3304 141.95 28.1223 142.635 27.8993 143.393C27.1237 146.029 26.147 149.623 25.0333 154.036C22.8051 162.865 20.0151 175.026 17.1774 189.442C11.504 218.265 5.62419 256.187 3.67336 294.598C1.72539 332.954 3.67868 372.064 13.8456 403.127C24.0333 434.254 42.6847 457.824 74.3284 463.798C74.5133 463.833 74.7017 463.851 74.8898 463.851H300.125L307.975 443.83L319.398 450.284L338.159 407.159C338.17 407.132 338.182 407.105 338.193 407.078L322.99 393.657L301.951 401.785L294.083 349.029L292.896 263.053C317.691 237.915 328.97 198.429 333.66 164.36C336.044 147.041 336.749 130.956 336.612 118.575C336.544 112.384 336.265 107.094 335.876 103.02C335.502 99.1015 334.997 95.9316 334.329 94.2626C330.027 83.5209 322.125 79.4771 317.176 77.006C316.583 76.7099 315.707 76.4359 314.832 76.1897C313.872 75.9193 312.635 75.6086 311.155 75.2675C308.19 74.5841 304.169 73.7607 299.266 72.8776C289.457 71.1109 276.061 69.0944 260.437 67.4725C230.47 64.3618 192.178 62.6917 155.223 67.0838C160.782 48.5742 163.378 35.3771 162.297 25.7578C161.699 20.4413 159.971 16.0842 156.931 12.5306C153.923 9.01487 149.819 6.50508 144.842 4.533L144.488 4.39284L144.111 4.34454L142.552 4.15491Z" fill="#D0A38F"/>
<path d="M322.99 393.657L301.951 401.785L294.083 349.029L292.896 263.053C317.691 237.915 328.97 198.429 333.66 164.36C336.044 147.041 336.749 130.956 336.612 118.575C336.544 112.384 336.265 107.094 335.876 103.02C335.502 99.1015 334.997 95.9316 334.329 94.2626C330.027 83.5208 322.125 79.4771 317.176 77.006C316.583 76.7099 315.707 76.4359 314.833 76.1897C313.872 75.9193 312.635 75.6086 311.155 75.2675C308.19 74.5841 304.169 73.7607 299.266 72.8776C289.457 71.1109 276.061 69.0944 260.437 67.4725C230.47 64.3618 192.178 62.6917 155.223 67.0838C160.782 48.5742 163.378 35.3771 162.297 25.7578C161.699 20.4413 159.971 16.0842 156.931 12.5306C153.923 9.01487 149.819 6.50508 144.842 4.533L144.488 4.39284L144.111 4.34454L142.552 4.15491C134.859 3.25768 128.648 3.17244 122.484 3.96057C115.879 4.45359 109.449 5.84314 101.687 9.30917C93.0675 13.6749 89.1461 24.5062 88.7606 25.0735C88.3752 25.6408 85.7915 38.0311 87.6178 48.27C87.6178 48.27 87.6352 48.4115 87.6579 48.4997C87.6805 48.5878 87.7334 48.72 87.7334 48.72C87.7334 48.72 96.5616 71.1141 102.719 79.4359L73.011 85.139L68.113 79.4983C63.9071 74.507 60.2312 70.7353 56.1563 68.6633C51.9151 66.5067 47.5659 66.3365 42.3928 67.6715C36.4447 68.1101 31.9646 69.8906 27.9594 73.2498C24.0499 76.5289 20.7054 81.2303 16.8189 87.0825L16.6608 87.3216L16.55 87.5866C10.7952 101.349 10.4787 101.626 10.4787 114.893L11.6864 122.733L12.9811 126.822C16.4925 134.259 21.5639 138.59 28.522 141.344C28.3304 141.95 28.1223 142.635 27.8993 143.393C27.1237 146.029 26.147 149.623 25.0333 154.036C22.8051 162.865 20.0151 175.026 17.1774 189.442C11.504 218.265 5.62419 256.187 3.67336 294.598C1.72539 332.954 3.67868 372.064 13.8456 403.127C24.0333 434.254 42.6847 457.824 74.3284 463.798C74.5133 463.833 74.7017 463.851 74.8898 463.851H300.125M322.99 393.657L344.152 377.052C345.226 376.209 346.734 376.191 347.827 377.009C348.921 377.826 349.329 379.277 348.821 380.543L338.193 407.078M322.99 393.657L338.193 407.078M338.193 407.078C338.182 407.105 338.17 407.132 338.159 407.159L319.398 450.284M319.398 450.284L321.346 451.857C322.128 452.489 322.545 453.468 322.456 454.469C322.367 455.469 321.784 456.36 320.903 456.844L308.827 463.478C308.381 463.723 307.88 463.851 307.372 463.851H300.125M319.398 450.284L307.975 443.83M286.841 431.889L307.975 443.83M307.975 443.83L300.125 463.851" stroke="black" stroke-width="5" stroke-linecap="round" stroke-linejoin="round"/>
<path d="M71.6356 96.5018L40.4026 131.817C40.4026 131.817 35.7755 133.002 29.4132 130.632C23.0509 128.262 20.5593 127.964 20.1589 117.006C20.1589 111.082 23.0509 102.195 27.5323 95.1032C27.5323 95.1032 35.551 80.6511 47.5792 79.7187C59.6074 78.7863 71.6356 96.5018 71.6356 96.5018Z" fill="#5C3F3F"/>
<path d="M141.217 68.3828L116.131 76.7039C116.131 76.7039 110.235 74.8095 104.333 68.3825C98.4324 61.9554 92.8111 41.6907 98.4041 30.9554C101.673 25.2929 107.14 20.9335 116.131 17.0863C116.131 17.0863 127.074 10.1091 141.217 17.0863C155.36 24.0636 141.217 68.3828 141.217 68.3828Z" fill="#5C3F3F"/>
<path d="M322.368 81.5113C334.865 83.7149 343.996 94.8951 349.064 110.012C354.166 125.232 355.408 145.062 351.727 165.935C348.047 186.808 340.098 205.017 330.097 217.575C320.165 230.047 307.761 237.431 295.264 235.227C282.767 233.023 273.636 221.842 268.568 206.726C263.466 191.505 262.224 171.675 265.905 150.802C269.585 129.929 277.534 111.72 287.534 99.1624C297.467 86.6907 309.871 79.3078 322.368 81.5113Z" fill="#5C3F3F" stroke="black" stroke-width="5"/>
<path d="M229.555 287.324L222.879 298.773L207.097 306.004L209.222 287.324H229.555Z" fill="#5C3F3F"/>
<path d="M314.5 280.965L294.5 274.5V300.5L312.712 296.984L314.5 280.965Z" fill="#D0A38F"/>
<path d="M326.672 294.555L331.528 287.324L324.851 284.311L314.5 280.965L312.712 296.984L326.672 294.555Z" fill="#5C3F3F"/>
<path d="M292.681 136.079L309.07 150.541M323.03 148.13L337.598 133.066M315.14 157.169L312.712 218.028M188.888 287.324H209.222M191.316 313.234L207.097 306.004M209.222 287.324H229.555L222.879 298.773L207.097 306.004M209.222 287.324L207.097 306.004M314.5 280.965L324.851 284.311L331.528 287.324L326.672 294.555L312.712 296.984M314.5 280.965L294.5 274.5V300.5L312.712 296.984M314.5 280.965L312.712 296.984" stroke="black" stroke-width="5" stroke-linecap="round" stroke-linejoin="round"/>
<path d="M196.514 150.225L124.065 156.898" stroke="black" stroke-width="8" stroke-linecap="round" stroke-linejoin="round"/>
<path d="M273.425 86.9153C287.354 78.8738 301.69 74.8306 313.535 74.6895C325.47 74.5473 334.286 78.3283 338.246 85.1877C342.206 92.0471 341.073 101.572 334.982 111.837C328.937 122.025 318.268 132.419 304.34 140.46C290.411 148.502 276.075 152.545 264.23 152.686C252.295 152.828 243.479 149.047 239.519 142.188C235.559 135.328 236.692 125.804 242.783 115.538C248.828 105.351 259.497 94.9569 273.425 86.9153Z" fill="#7F7B6B" stroke="black" stroke-width="5" stroke-linejoin="round"/>
<path d="M270.425 77.9153C284.354 69.8738 298.69 65.8306 310.535 65.6895C322.47 65.5473 331.286 69.3283 335.246 76.1877C339.206 83.0471 338.073 92.5718 331.982 102.837C325.937 113.025 315.268 123.419 301.34 131.46C287.411 139.502 273.075 143.545 261.23 143.686C249.295 143.828 240.479 140.047 236.519 133.188C232.559 126.328 233.692 116.804 239.783 106.538C245.828 96.3507 256.497 85.9569 270.425 77.9153Z" fill="#FFD814" stroke="black" stroke-width="5" stroke-linejoin="round"/>
<path d="M276.713 84.7029L302.767 118.887" stroke="black" stroke-width="5" stroke-linecap="round" stroke-linejoin="round"/>
<path d="M299.074 83.7665C272.96 93.3863 266.97 98.9285 264.657 108.959C266.785 114.314 278.359 110.805 278.359 110.805C278.359 110.805 292.868 101.237 301.458 97.4689C301.458 97.4689 305.604 95.0753 312.822 98.0034C320.041 100.931 285.08 122.447 285.08 122.447" stroke="black" stroke-width="5" stroke-linecap="round" stroke-linejoin="round"/>
</g>
<g filter="url(#filter1_d_45_24)">
<path d="M344.152 377.052L322.99 393.657L338.193 407.078L348.821 380.543C349.329 379.277 348.921 377.826 347.827 377.009C346.734 376.191 345.226 376.209 344.152 377.052Z" fill="#5C3F3F"/>
<path d="M321.346 451.857L319.398 450.284L307.975 443.83L300.125 463.851H307.372C307.88 463.851 308.381 463.723 308.827 463.478L320.903 456.844C321.784 456.36 322.367 455.469 322.456 454.469C322.545 453.468 322.128 452.489 321.346 451.857Z" fill="#5C3F3F"/>
<path d="M142.552 4.15491C134.859 3.25768 128.648 3.17244 122.484 3.96057C115.879 4.45359 109.449 5.84314 101.687 9.30917C93.0675 13.6749 89.1461 24.5062 88.7606 25.0735C88.3752 25.6408 85.7915 38.0311 87.6178 48.27C87.6178 48.27 87.6352 48.4115 87.6579 48.4997C87.6805 48.5878 87.7334 48.72 87.7334 48.72C87.7334 48.72 96.5616 71.1141 102.719 79.4359L73.011 85.139L68.113 79.4983C63.9071 74.507 60.2312 70.7353 56.1563 68.6633C51.9151 66.5067 47.5659 66.3365 42.3928 67.6715C36.4447 68.1101 31.9646 69.8906 27.9594 73.2498C24.0499 76.5289 20.7054 81.2303 16.8189 87.0825L16.6608 87.3216L16.55 87.5866C10.7952 101.349 10.4787 101.626 10.4787 114.893L11.6864 122.733L12.9811 126.822C16.4925 134.259 21.5639 138.59 28.522 141.344C28.3304 141.95 28.1223 142.635 27.8993 143.393C27.1237 146.029 26.147 149.623 25.0333 154.036C22.8051 162.865 20.0151 175.026 17.1774 189.442C11.504 218.265 5.62419 256.187 3.67336 294.598C1.72539 332.954 3.67868 372.064 13.8456 403.127C24.0333 434.254 42.6847 457.824 74.3284 463.798C74.5133 463.833 74.7017 463.851 74.8898 463.851H300.125L307.975 443.83L319.398 450.284L338.159 407.159C338.17 407.132 338.182 407.105 338.193 407.078L322.99 393.657L301.951 401.785L294.083 349.029L292.896 263.053C317.691 237.915 328.97 198.429 333.66 164.36C336.044 147.041 336.749 130.956 336.612 118.575C336.544 112.384 336.265 107.094 335.876 103.02C335.502 99.1015 334.997 95.9316 334.329 94.2626C330.027 83.5209 322.125 79.4771 317.176 77.006C316.583 76.7099 315.707 76.4359 314.832 76.1897C313.872 75.9193 312.635 75.6086 311.155 75.2675C308.19 74.5841 304.169 73.7607 299.266 72.8776C289.457 71.1109 276.061 69.0944 260.437 67.4725C230.47 64.3618 192.178 62.6917 155.223 67.0838C160.782 48.5742 163.378 35.3771 162.297 25.7578C161.699 20.4413 159.971 16.0842 156.931 12.5306C153.923 9.01487 149.819 6.50508 144.842 4.533L144.488 4.39284L144.111 4.34454L142.552 4.15491Z" fill="#D0A38F"/>
<path d="M322.99 393.657L301.951 401.785L294.083 349.029L292.896 263.053C317.691 237.915 328.97 198.429 333.66 164.36C336.044 147.041 336.749 130.956 336.612 118.575C336.544 112.384 336.265 107.094 335.876 103.02C335.502 99.1015 334.997 95.9316 334.329 94.2626C330.027 83.5208 322.125 79.4771 317.176 77.006C316.583 76.7099 315.707 76.4359 314.833 76.1897C313.872 75.9193 312.635 75.6086 311.155 75.2675C308.19 74.5841 304.169 73.7607 299.266 72.8776C289.457 71.1109 276.061 69.0944 260.437 67.4725C230.47 64.3618 192.178 62.6917 155.223 67.0838C160.782 48.5742 163.378 35.3771 162.297 25.7578C161.699 20.4413 159.971 16.0842 156.931 12.5306C153.923 9.01487 149.819 6.50508 144.842 4.533L144.488 4.39284L144.111 4.34454L142.552 4.15491C134.859 3.25768 128.648 3.17244 122.484 3.96057C115.879 4.45359 109.449 5.84314 101.687 9.30917C93.0675 13.6749 89.1461 24.5062 88.7606 25.0735C88.3752 25.6408 85.7915 38.0311 87.6178 48.27C87.6178 48.27 87.6352 48.4115 87.6579 48.4997C87.6805 48.5878 87.7334 48.72 87.7334 48.72C87.7334 48.72 96.5616 71.1141 102.719 79.4359L73.011 85.139L68.113 79.4983C63.9071 74.507 60.2312 70.7353 56.1563 68.6633C51.9151 66.5067 47.5659 66.3365 42.3928 67.6715C36.4447 68.1101 31.9646 69.8906 27.9594 73.2498C24.0499 76.5289 20.7054 81.2303 16.8189 87.0825L16.6608 87.3216L16.55 87.5866C10.7952 101.349 10.4787 101.626 10.4787 114.893L11.6864 122.733L12.9811 126.822C16.4925 134.259 21.5639 138.59 28.522 141.344C28.3304 141.95 28.1223 142.635 27.8993 143.393C27.1237 146.029 26.147 149.623 25.0333 154.036C22.8051 162.865 20.0151 175.026 17.1774 189.442C11.504 218.265 5.62419 256.187 3.67336 294.598C1.72539 332.954 3.67868 372.064 13.8456 403.127C24.0333 434.254 42.6847 457.824 74.3284 463.798C74.5133 463.833 74.7017 463.851 74.8898 463.851H300.125M322.99 393.657L344.152 377.052C345.226 376.209 346.734 376.191 347.827 377.009C348.921 377.826 349.329 379.277 348.821 380.543L338.193 407.078M322.99 393.657L338.193 407.078M338.193 407.078C338.182 407.105 338.17 407.132 338.159 407.159L319.398 450.284M319.398 450.284L321.346 451.857C322.128 452.489 322.545 453.468 322.456 454.469C322.367 455.469 321.784 456.36 320.903 456.844L308.827 463.478C308.381 463.723 307.88 463.851 307.372 463.851H300.125M319.398 450.284L307.975 443.83M286.841 431.889L307.975 443.83M307.975 443.83L300.125 463.851" stroke="black" stroke-width="5" stroke-linecap="round" stroke-linejoin="round"/>
<path d="M71.6356 96.5018L40.4026 131.817C40.4026 131.817 35.7755 133.002 29.4132 130.632C23.0509 128.262 20.5593 127.964 20.1589 117.006C20.1589 111.082 23.0509 102.195 27.5323 95.1032C27.5323 95.1032 35.551 80.6511 47.5792 79.7187C59.6074 78.7863 71.6356 96.5018 71.6356 96.5018Z" fill="#5C3F3F"/>
<path d="M141.217 68.3828L116.131 76.7039C116.131 76.7039 110.235 74.8095 104.333 68.3825C98.4324 61.9554 92.8111 41.6907 98.4041 30.9554C101.673 25.2929 107.14 20.9335 116.131 17.0863C116.131 17.0863 127.074 10.1091 141.217 17.0863C155.36 24.0636 141.217 68.3828 141.217 68.3828Z" fill="#5C3F3F"/>
<path d="M322.368 81.5113C334.865 83.7149 343.996 94.8951 349.064 110.012C354.166 125.232 355.408 145.062 351.727 165.935C348.047 186.808 340.098 205.017 330.097 217.575C320.165 230.047 307.761 237.431 295.264 235.227C282.767 233.023 273.636 221.842 268.568 206.726C263.466 191.505 262.224 171.675 265.905 150.802C269.585 129.929 277.534 111.72 287.534 99.1624C297.467 86.6907 309.871 79.3078 322.368 81.5113Z" fill="#5C3F3F" stroke="black" stroke-width="5"/>
<path d="M229.555 287.324L222.879 298.773L207.097 306.004L209.222 287.324H229.555Z" fill="#5C3F3F"/>
<path d="M314.5 280.965L294.5 274.5V300.5L312.712 296.984L314.5 280.965Z" fill="#D0A38F"/>
<path d="M326.672 294.555L331.528 287.324L324.851 284.311L314.5 280.965L312.712 296.984L326.672 294.555Z" fill="#5C3F3F"/>
<path d="M292.681 136.079L309.07 150.541M323.03 148.13L337.598 133.066M315.14 157.169L312.712 218.028M188.888 287.324H209.222M191.316 313.234L207.097 306.004M209.222 287.324H229.555L222.879 298.773L207.097 306.004M209.222 287.324L207.097 306.004M314.5 280.965L324.851 284.311L331.528 287.324L326.672 294.555L312.712 296.984M314.5 280.965L294.5 274.5V300.5L312.712 296.984M314.5 280.965L312.712 296.984" stroke="black" stroke-width="5" stroke-linecap="round" stroke-linejoin="round"/>
<path d="M196.514 150.225L124.065 156.898" stroke="black" stroke-width="8" stroke-linecap="round" stroke-linejoin="round"/>
<path d="M273.425 86.9153C287.354 78.8738 301.69 74.8306 313.535 74.6895C325.47 74.5473 334.286 78.3283 338.246 85.1877C342.206 92.0471 341.073 101.572 334.982 111.837C328.937 122.025 318.268 132.419 304.34 140.46C290.411 148.502 276.075 152.545 264.23 152.686C252.295 152.828 243.479 149.047 239.519 142.188C235.559 135.328 236.692 125.804 242.783 115.538C248.828 105.351 259.497 94.9569 273.425 86.9153Z" fill="#7F7B6B" stroke="black" stroke-width="5" stroke-linejoin="round"/>
<path d="M270.425 77.9153C284.354 69.8738 298.69 65.8306 310.535 65.6895C322.47 65.5473 331.286 69.3283 335.246 76.1877C339.206 83.0471 338.073 92.5718 331.982 102.837C325.937 113.025 315.268 123.419 301.34 131.46C287.411 139.502 273.075 143.545 261.23 143.686C249.295 143.828 240.479 140.047 236.519 133.188C232.559 126.328 233.692 116.804 239.783 106.538C245.828 96.3507 256.497 85.9569 270.425 77.9153Z" fill="#FFD814" stroke="black" stroke-width="5" stroke-linejoin="round"/>
<path d="M276.713 84.7029L302.767 118.887" stroke="black" stroke-width="5" stroke-linecap="round" stroke-linejoin="round"/>
<path d="M299.074 83.7665C272.96 93.3863 266.97 98.9285 264.657 108.959C266.785 114.314 278.359 110.805 278.359 110.805C278.359 110.805 292.868 101.237 301.458 97.4689C301.458 97.4689 305.604 95.0753 312.822 98.0034C320.041 100.931 285.08 122.447 285.08 122.447" stroke="black" stroke-width="5" stroke-linecap="round" stroke-linejoin="round"/>
</g>
<path d="M75.8924 96.8474C74.9248 101.838 76.0776 107.138 80.1549 112.47C82.3084 115.287 85.9116 116.172 90.1131 115.447C95.3918 114.536 101.615 111.082 107.094 105.721C113.653 101.122 118.772 96.0419 121.592 91.3792C124.276 86.9409 124.877 82.8809 122.656 79.9754C119.146 75.3849 114.797 73.1174 110.14 72.5505C102.709 71.6457 94.4946 75.0719 87.6573 80.2995C81.5128 84.9974 77.0869 90.6867 75.8924 96.8474Z" fill="#FEB7B7"/>
<path d="M110.14 72.5505C114.797 73.1174 119.146 75.3849 122.656 79.9754C124.877 82.8809 124.276 86.9409 121.592 91.3792C128.378 90.2718 152.175 84.395 167.724 76.3579C187.3 66.1414 180.716 53.8366 171.069 37.9253C160.743 24.4202 140.884 28.9043 131.117 32.5949C121.351 36.2855 111.753 51.1868 110.14 72.5505Z" fill="#F7999C"/>
<path d="M80.1549 112.47C76.0776 107.138 74.9248 101.838 75.8924 96.8474C49.432 96.0892 36.9754 98.6327 23.8721 114.592C10.5966 131.969 17.0002 150.057 26.5786 158.469C36.1571 166.88 57.0452 175.335 69.8946 159.968C79.0216 150.271 85.7779 131.335 90.1131 115.447C85.9116 116.172 82.3084 115.287 80.1549 112.47Z" fill="#F7999C"/>
<path d="M75.8924 96.8474C74.9248 101.838 76.0776 107.138 80.1549 112.47C82.3084 115.287 85.9116 116.172 90.1131 115.447M75.8924 96.8474C77.0869 90.6867 81.5128 84.9974 87.6573 80.2995C94.4946 75.0719 102.709 71.6457 110.14 72.5505M75.8924 96.8474C49.432 96.0892 36.9754 98.6327 23.8721 114.592C10.5966 131.969 17.0002 150.057 26.5786 158.469C36.1571 166.88 57.0452 175.335 69.8946 159.968C79.0216 150.271 85.7779 131.335 90.1131 115.447M90.1131 115.447C95.3918 114.536 101.615 111.082 107.094 105.721C113.653 101.122 118.772 96.0419 121.592 91.3792M110.14 72.5505C114.797 73.1174 119.146 75.3849 122.656 79.9754C124.877 82.8809 124.276 86.9409 121.592 91.3792M110.14 72.5505C111.753 51.1868 121.351 36.2855 131.117 32.5949C140.884 28.9043 160.743 24.4202 171.069 37.9253C180.716 53.8366 187.3 66.1414 167.724 76.3579C152.175 84.395 128.378 90.2718 121.592 91.3792" stroke="black" stroke-width="5"/>
<path d="M314.644 273.125C320.323 273.125 326.418 259.628 325.449 257.124C324.479 254.619 323.371 254.48 319.492 253.227C315.613 251.975 317.83 252.81 314.644 251.836C311.458 250.862 310.765 248.636 310.765 248.636C308.687 235.973 297.605 226.233 285.831 229.712C274.056 233.191 272.255 242.652 273.225 250.445C274.195 258.237 280.567 262.411 285.831 263.663C291.095 264.916 302.251 262.047 304.67 263.663C307.718 265.194 308.964 273.125 314.644 273.125Z" fill="#FDD8D8"/>
<path d="M325.449 257.124C326.418 259.628 320.323 273.125 314.644 273.125C308.964 273.125 307.718 265.194 304.67 263.663C299.545 269.507 298.436 282.587 298.436 282.587C298.311 289.734 299.592 292.321 304.67 293.997C313.303 294.109 317.414 291.214 322.124 287.874L326.972 282.587C326.972 282.587 335.753 271.595 337.777 267.142C339.802 262.689 340.963 260.463 340.963 260.463C341.536 258.842 341.813 256.155 341.885 253.227C342.004 248.365 341.558 242.839 340.963 240.426C338.968 233.958 336.526 231.93 326.972 234.582C320.908 238.506 317.738 239.353 310.765 248.636C310.765 248.636 311.458 250.862 314.644 251.836C317.83 252.81 315.613 251.975 319.492 253.227C323.371 254.48 324.479 254.619 325.449 257.124Z" fill="#FDD8D8"/>
<path d="M340.963 260.463C348.066 265.811 346.632 272.991 344 278C341.368 283.009 331.959 287.874 326.972 282.587L322.124 287.874C326.819 293.763 334.513 293.335 339.5 292.5C344.487 291.665 349.784 288.148 352 284C354.216 279.852 356.54 272.953 355 268.5C352.527 261.347 350.44 256.708 341.885 253.227C341.813 256.155 341.536 258.842 340.963 260.463Z" fill="#FDD8D8"/>
<path d="M304.67 263.663C307.718 265.194 308.964 273.125 314.644 273.125C320.323 273.125 326.418 259.628 325.449 257.124C324.479 254.619 323.371 254.48 319.492 253.227C315.613 251.975 317.83 252.81 314.644 251.836C311.458 250.862 310.765 248.636 310.765 248.636M304.67 263.663C302.251 262.047 291.095 264.916 285.831 263.663C280.567 262.411 274.195 258.237 273.225 250.445C272.255 242.652 274.056 233.191 285.831 229.712C297.605 226.233 308.687 235.973 310.765 248.636M304.67 263.663C299.545 269.507 298.436 282.587 298.436 282.587C298.311 289.734 299.592 292.321 304.67 293.997C313.303 294.109 317.414 291.214 322.124 287.874M310.765 248.636C317.738 239.353 320.908 238.506 326.972 234.582C336.526 231.93 338.968 233.958 340.963 240.426C341.558 242.839 342.004 248.365 341.885 253.227M326.972 282.587C326.972 282.587 335.753 271.595 337.777 267.142C339.802 262.689 340.963 260.463 340.963 260.463M326.972 282.587C331.959 287.874 341.368 283.009 344 278C346.632 272.991 348.066 265.811 340.963 260.463M326.972 282.587L322.124 287.874M340.963 260.463C341.536 258.842 341.813 256.155 341.885 253.227M322.124 287.874C326.819 293.763 334.513 293.335 339.5 292.5C344.487 291.665 349.784 288.148 352 284C354.216 279.852 356.54 272.953 355 268.5C352.527 261.347 350.44 256.708 341.885 253.227" stroke="black" stroke-width="5"/>
<defs>
<filter id="filter0_d_45_24" x="0.499756" y="0.921387" width="379.851" height="495.43" filterUnits="userSpaceOnUse" color-interpolation-filters="sRGB">
<feFlood flood-opacity="0" result="BackgroundImageFix"/>
<feColorMatrix in="SourceAlpha" type="matrix" values="0 0 0 0 0 0 0 0 0 0 0 0 0 0 0 0 0 0 127 0" result="hardAlpha"/>
<feOffset dx="20" dy="26"/>
<feGaussianBlur stdDeviation="2"/>
<feComposite in2="hardAlpha" operator="out"/>
<feColorMatrix type="matrix" values="0 0 0 0 0 0 0 0 0 0 0 0 0 0 0 0 0 0 0.25 0"/>
<feBlend mode="normal" in2="BackgroundImageFix" result="effect1_dropShadow_45_24"/>
<feBlend mode="normal" in="SourceGraphic" in2="effect1_dropShadow_45_24" result="shape"/>
</filter>
<filter id="filter1_d_45_24" x="0.499756" y="0.921387" width="379.851" height="495.43" filterUnits="userSpaceOnUse" color-interpolation-filters="sRGB">
<feFlood flood-opacity="0" result="BackgroundImageFix"/>
<feColorMatrix in="SourceAlpha" type="matrix" values="0 0 0 0 0 0 0 0 0 0 0 0 0 0 0 0 0 0 127 0" result="hardAlpha"/>
<feOffset dx="20" dy="26"/>
<feGaussianBlur stdDeviation="2"/>
<feComposite in2="hardAlpha" operator="out"/>
<feColorMatrix type="matrix" values="0 0 0 0 0 0 0 0 0 0 0 0 0 0 0 0 0 0 0.25 0"/>
<feBlend mode="normal" in2="BackgroundImageFix" result="effect1_dropShadow_45_24"/>
<feBlend mode="normal" in="SourceGraphic" in2="effect1_dropShadow_45_24" result="shape"/>
</filter>
</defs>
</svg>
