<svg width="353" height="434" viewBox="0 0 353 434" fill="none" xmlns="http://www.w3.org/2000/svg">
<g filter="url(#filter0_d_18_240)">
<path d="M316.152 376.201L294.99 392.806L310.193 406.227L320.821 379.692C321.329 378.425 320.921 376.975 319.827 376.157C318.734 375.34 317.226 375.358 316.152 376.201Z" fill="#5C3F3F"/>
<path d="M293.346 451.006L291.398 449.432L279.975 442.979L272.125 463H279.372C279.88 463 280.381 462.871 280.827 462.627L292.903 455.993C293.784 455.509 294.367 454.618 294.456 453.617C294.545 452.617 294.128 451.637 293.346 451.006Z" fill="#5C3F3F"/>
<path d="M114.552 3.30359C106.859 2.40636 100.648 2.32112 94.4842 3.10925C87.8795 3.60227 81.4492 4.99182 73.6868 8.45785C65.0675 12.8236 61.1461 23.6549 60.7606 24.2222C60.3752 24.7894 57.7915 37.1798 59.6178 47.4187C59.6178 47.4187 59.6352 47.5602 59.6579 47.6484C59.6805 47.7364 59.7334 47.8686 59.7334 47.8686C59.7334 47.8686 68.5616 70.2628 74.7188 78.5846L45.011 84.2877L40.113 78.647C35.9071 73.6557 32.2312 69.884 28.1563 67.812C23.9151 65.6554 19.5659 65.4852 14.3928 66.8202C8.44473 67.2588 3.96459 69.0393 -0.0405903 72.3985C-3.95008 75.6775 -7.29461 80.379 -11.1811 86.2311L-11.3392 86.4703L-11.45 86.7353C-17.2048 100.498 -17.5213 100.775 -17.5213 114.042L-16.3136 121.882L-15.0189 125.971C-11.5075 133.408 -6.43608 137.739 0.521978 140.492C0.330395 141.099 0.122253 141.784 -0.10074 142.542C-0.876261 145.177 -1.85304 148.772 -2.96666 153.185C-5.19492 162.014 -7.98495 174.174 -10.8226 188.591C-16.496 217.414 -22.3758 255.336 -24.3266 293.747C-26.2746 332.102 -24.3213 371.212 -14.1544 402.276C-3.96668 433.403 14.6847 456.973 46.3284 462.947C46.5133 462.982 46.7017 463 46.8898 463H272.125L279.975 442.979L291.398 449.432L310.159 406.308C310.17 406.281 310.182 406.254 310.193 406.227L294.99 392.806L273.951 400.933L266.083 348.177L264.896 262.202C289.691 237.063 300.97 197.577 305.66 163.509C308.044 146.19 308.749 130.105 308.612 117.723C308.544 111.533 308.265 106.243 307.876 102.169C307.502 98.2501 306.997 95.0802 306.329 93.4113C302.027 82.6695 294.125 78.6258 289.176 76.1547C288.583 75.8586 287.707 75.5846 286.832 75.3384C285.872 75.068 284.635 74.7573 283.155 74.4162C280.19 73.7327 276.169 72.9094 271.266 72.0263C261.457 70.2596 248.061 68.2431 232.437 66.6212C202.47 63.5104 164.178 61.8404 127.223 66.2325C132.782 47.7229 135.378 34.5258 134.297 24.9065C133.699 19.59 131.971 15.2329 128.931 11.6793C125.923 8.16355 121.819 5.65377 116.842 3.68168L116.488 3.54152L116.111 3.49323L114.552 3.30359Z" fill="#D0A38F"/>
<path d="M294.99 392.806L273.951 400.933L266.083 348.177L264.896 262.202C289.691 237.063 300.97 197.577 305.66 163.509C308.044 146.19 308.749 130.105 308.612 117.723C308.544 111.533 308.265 106.243 307.876 102.169C307.502 98.2501 306.997 95.0802 306.329 93.4113C302.027 82.6695 294.125 78.6258 289.176 76.1547C288.583 75.8586 287.707 75.5846 286.833 75.3384C285.872 75.068 284.635 74.7573 283.155 74.4162C280.19 73.7327 276.169 72.9094 271.266 72.0263C261.457 70.2596 248.061 68.2431 232.437 66.6212C202.47 63.5104 164.178 61.8404 127.223 66.2325C132.782 47.7229 135.378 34.5258 134.297 24.9065C133.699 19.59 131.971 15.2329 128.931 11.6793C125.923 8.16355 121.819 5.65377 116.842 3.68168L116.488 3.54152L116.111 3.49323L114.552 3.30359C106.859 2.40636 100.648 2.32112 94.4842 3.10925C87.8795 3.60227 81.4492 4.99182 73.6868 8.45785C65.0675 12.8236 61.1461 23.6549 60.7606 24.2222C60.3752 24.7894 57.7915 37.1798 59.6178 47.4187C59.6178 47.4187 59.6352 47.5602 59.6579 47.6484C59.6805 47.7364 59.7334 47.8686 59.7334 47.8686C59.7334 47.8686 68.5616 70.2628 74.7187 78.5846L45.011 84.2877L40.113 78.647C35.9071 73.6557 32.2312 69.884 28.1563 67.812C23.9151 65.6554 19.5659 65.4852 14.3928 66.8202C8.44473 67.2588 3.96459 69.0393 -0.0405911 72.3985C-3.95008 75.6775 -7.29461 80.379 -11.1811 86.2311L-11.3392 86.4703L-11.45 86.7353C-17.2048 100.498 -17.5213 100.775 -17.5213 114.042L-16.3136 121.882L-15.0189 125.971C-11.5075 133.408 -6.43608 137.739 0.521979 140.492C0.330395 141.099 0.122253 141.784 -0.10074 142.542C-0.876261 145.177 -1.85304 148.772 -2.96666 153.185C-5.19492 162.014 -7.98495 174.174 -10.8226 188.591C-16.496 217.414 -22.3758 255.336 -24.3266 293.747C-26.2746 332.102 -24.3213 371.212 -14.1544 402.276C-3.96668 433.403 14.6847 456.973 46.3284 462.947C46.5133 462.982 46.7017 463 46.8898 463H272.125M294.99 392.806L316.152 376.201C317.226 375.358 318.734 375.34 319.827 376.157C320.921 376.975 321.329 378.425 320.821 379.692L310.193 406.227M294.99 392.806L310.193 406.227M310.193 406.227C310.182 406.254 310.17 406.281 310.159 406.308L291.398 449.432M291.398 449.432L293.346 451.006C294.128 451.637 294.545 452.617 294.456 453.617C294.367 454.618 293.784 455.509 292.903 455.993L280.827 462.627C280.381 462.871 279.88 463 279.372 463H272.125M291.398 449.432L279.975 442.979M258.841 431.038L279.975 442.979M279.975 442.979L272.125 463" stroke="black" stroke-width="5" stroke-linecap="round" stroke-linejoin="round"/>
<path d="M43.6355 95.6505L12.4025 130.965C12.4025 130.965 7.77542 132.15 1.41312 129.781C-4.94918 127.411 -7.44071 127.112 -7.84113 116.155C-7.84113 110.23 -4.94919 101.344 -0.4678 94.2519C-0.4678 94.2519 7.55098 79.7997 19.5792 78.8673C31.6073 77.9349 43.6355 95.6505 43.6355 95.6505Z" fill="#5C3F3F"/>
<path d="M113.217 67.5315L88.1313 75.8526C88.1313 75.8526 82.2346 73.9582 76.3335 67.5311C70.4325 61.1041 64.8111 40.8394 70.4042 30.1041C73.6735 24.4416 79.1399 20.0822 88.1313 16.235C88.1313 16.235 99.0744 9.25778 113.218 16.235C127.361 23.2122 113.217 67.5315 113.217 67.5315Z" fill="#5C3F3F"/>
<path d="M294.368 80.6601C306.865 82.8637 315.996 94.0439 321.064 109.16C326.166 124.381 327.408 144.211 323.727 165.084C320.047 185.957 312.098 204.166 302.097 216.724C292.165 229.196 279.761 236.579 267.264 234.376C254.767 232.172 245.636 220.991 240.568 205.874C235.466 190.654 234.224 170.824 237.905 149.951C241.585 129.078 249.534 110.869 259.534 98.3112C269.467 85.8396 281.871 78.4566 294.368 80.6601Z" fill="#5C3F3F" stroke="black" stroke-width="5"/>
<path d="M248.692 250.133C276.285 250.133 298.654 272.502 298.654 300.094C298.654 327.687 276.285 350.056 248.692 350.056C221.1 350.056 198.732 327.687 198.732 300.094C198.732 272.502 221.1 250.134 248.692 250.133Z" fill="#FFD814" stroke="black" stroke-width="5" stroke-linejoin="round"/>
<path d="M250.502 265.724L255.326 332.657" stroke="black" stroke-width="5" stroke-linecap="round" stroke-linejoin="round"/>
<path d="M267.989 282.005C243.808 274.585 236.79 277.417 230.603 289.241C229.867 298.193 240.251 302.507 240.251 302.507C240.251 302.507 255.548 300.887 263.768 302.507C263.768 302.507 267.989 302.507 272.21 312.155C276.431 321.803 240.251 323.612 240.251 323.612" stroke="black" stroke-width="5" stroke-linecap="round" stroke-linejoin="round"/>
<path d="M201.556 286.473L194.879 297.922L179.097 305.152L181.222 286.473H201.556Z" fill="#5C3F3F"/>
<path d="M264.682 135.228L281.07 149.689M295.031 147.279L309.598 132.215M287.14 156.318L284.712 217.177M160.888 286.473H181.222M163.316 312.383L179.097 305.152M181.222 286.473H201.556L194.879 297.922L179.097 305.152M181.222 286.473L179.097 305.152M298.672 293.704L303.528 286.473L296.852 283.46" stroke="black" stroke-width="5" stroke-linecap="round" stroke-linejoin="round"/>
<path d="M168.514 149.374L96.0654 156.047" stroke="black" stroke-width="8" stroke-linecap="round" stroke-linejoin="round"/>
</g>
<defs>
<filter id="filter0_d_18_240" x="-27.5001" y="0.0700684" width="379.851" height="495.43" filterUnits="userSpaceOnUse" color-interpolation-filters="sRGB">
<feFlood flood-opacity="0" result="BackgroundImageFix"/>
<feColorMatrix in="SourceAlpha" type="matrix" values="0 0 0 0 0 0 0 0 0 0 0 0 0 0 0 0 0 0 127 0" result="hardAlpha"/>
<feOffset dx="20" dy="26"/>
<feGaussianBlur stdDeviation="2"/>
<feComposite in2="hardAlpha" operator="out"/>
<feColorMatrix type="matrix" values="0 0 0 0 0 0 0 0 0 0 0 0 0 0 0 0 0 0 0.25 0"/>
<feBlend mode="normal" in2="BackgroundImageFix" result="effect1_dropShadow_18_240"/>
<feBlend mode="normal" in="SourceGraphic" in2="effect1_dropShadow_18_240" result="shape"/>
</filter>
</defs>
</svg>
