<svg width="421" height="587" viewBox="0 0 421 587" fill="none" xmlns="http://www.w3.org/2000/svg">
<g filter="url(#filter0_d_45_18)">
<path d="M344.152 467.053L322.99 483.658L338.193 497.078L348.821 470.544C349.328 469.277 348.921 467.827 347.827 467.009C346.734 466.192 345.226 466.21 344.152 467.053Z" fill="#5C3F3F"/>
<path d="M321.346 541.858L319.398 540.284L307.975 533.83L300.125 553.852H307.372C307.88 553.852 308.381 553.723 308.827 553.478L320.903 546.845C321.784 546.361 322.367 545.47 322.456 544.469C322.545 543.469 322.128 542.489 321.346 541.858Z" fill="#5C3F3F"/>
<path d="M142.551 94.1554C134.859 93.2582 128.648 93.1729 122.484 93.9611C115.879 94.4541 109.449 95.8436 101.687 99.3097C93.0674 103.675 89.146 114.507 88.7605 115.074C88.3751 115.641 85.7914 128.032 87.6177 138.271C87.6177 138.271 87.6351 138.412 87.6578 138.5C87.6804 138.588 87.7333 138.72 87.7333 138.72C87.7333 138.72 96.5615 161.115 102.719 169.436L73.0109 175.14L68.1129 169.499C63.907 164.507 60.2311 160.736 56.1562 158.664C51.9149 156.507 47.5658 156.337 42.3927 157.672C36.4446 158.111 31.9645 159.891 27.9593 163.25C24.0498 166.529 20.7053 171.231 16.8187 177.083L16.6607 177.322L16.5498 177.587C10.7951 191.35 10.4786 191.627 10.4786 204.894L11.6863 212.734L12.981 216.822C16.4924 224.26 21.5638 228.591 28.5219 231.344C28.3303 231.951 28.1221 232.636 27.8991 233.394C27.1236 236.029 26.1468 239.624 25.0332 244.037C22.805 252.866 20.0149 265.026 17.1773 279.443C11.5039 308.266 5.62407 346.188 3.67323 384.599C1.72527 422.954 3.67856 462.064 13.8455 493.128C24.0332 524.255 42.6845 547.825 74.3283 553.799C74.5131 553.834 74.7015 553.852 74.8897 553.852H300.125L307.975 533.83L319.398 540.284L338.158 497.16C338.17 497.133 338.182 497.105 338.193 497.078L322.99 483.658L301.951 491.785L294.083 439.029L292.896 353.053C317.691 327.915 328.97 288.429 333.66 254.36C336.044 237.042 336.749 220.957 336.612 208.575C336.544 202.385 336.265 197.095 335.876 193.02C335.502 189.102 334.997 185.932 334.329 184.263C330.026 173.521 322.125 169.478 317.176 167.006C316.583 166.71 315.707 166.436 314.832 166.19C313.872 165.92 312.635 165.609 311.155 165.268C308.19 164.585 304.168 163.761 299.266 162.878C289.457 161.111 276.061 159.095 260.436 157.473C230.47 154.362 192.178 152.692 155.223 157.084C160.782 138.575 163.378 125.378 162.297 115.758C161.699 110.442 159.971 106.085 156.931 102.531C153.923 99.0154 149.818 96.5056 144.842 94.5335L144.488 94.3933L144.111 94.345L142.551 94.1554Z" fill="#D0A38F"/>
<path d="M322.99 483.658L301.951 491.785L294.083 439.029L292.896 353.053C317.691 327.915 328.97 288.429 333.66 254.36C336.044 237.042 336.749 220.957 336.612 208.575C336.544 202.385 336.265 197.095 335.876 193.02C335.502 189.102 334.997 185.932 334.329 184.263C330.026 173.521 322.125 169.478 317.176 167.006C316.583 166.71 315.707 166.436 314.832 166.19C313.872 165.92 312.635 165.609 311.155 165.268C308.19 164.585 304.168 163.761 299.266 162.878C289.457 161.111 276.061 159.095 260.436 157.473C230.47 154.362 192.178 152.692 155.223 157.084C160.782 138.575 163.378 125.378 162.297 115.758C161.699 110.442 159.971 106.085 156.931 102.531C153.923 99.0154 149.818 96.5056 144.842 94.5335L144.488 94.3933L144.111 94.345L142.551 94.1554C134.859 93.2582 128.648 93.1729 122.484 93.9611C115.879 94.4541 109.449 95.8436 101.687 99.3097C93.0674 103.675 89.146 114.507 88.7605 115.074C88.3751 115.641 85.7914 128.032 87.6177 138.271C87.6177 138.271 87.6351 138.412 87.6578 138.5C87.6804 138.588 87.7333 138.72 87.7333 138.72C87.7333 138.72 96.5615 161.115 102.719 169.436L73.0109 175.14L68.1129 169.499C63.907 164.507 60.2311 160.736 56.1562 158.664C51.9149 156.507 47.5658 156.337 42.3927 157.672C36.4446 158.111 31.9645 159.891 27.9593 163.25C24.0498 166.529 20.7053 171.231 16.8187 177.083L16.6607 177.322L16.5498 177.587C10.7951 191.35 10.4786 191.627 10.4786 204.894L11.6863 212.734L12.981 216.822C16.4924 224.26 21.5638 228.591 28.5219 231.344C28.3303 231.951 28.1221 232.636 27.8991 233.394C27.1236 236.029 26.1468 239.624 25.0332 244.037C22.805 252.866 20.0149 265.026 17.1773 279.443C11.5039 308.266 5.62407 346.188 3.67323 384.599C1.72527 422.954 3.67856 462.064 13.8455 493.128C24.0332 524.255 42.6845 547.825 74.3283 553.799C74.5131 553.834 74.7015 553.852 74.8897 553.852H300.125M322.99 483.658L344.152 467.053C345.226 466.21 346.734 466.192 347.827 467.009C348.921 467.827 349.328 469.277 348.821 470.544L338.193 497.078M322.99 483.658L338.193 497.078M338.193 497.078C338.182 497.105 338.17 497.133 338.158 497.16L319.398 540.284M319.398 540.284L321.346 541.858C322.128 542.489 322.545 543.469 322.456 544.469C322.367 545.47 321.784 546.361 320.903 546.845L308.827 553.478C308.381 553.723 307.88 553.852 307.372 553.852H300.125M319.398 540.284L307.975 533.83M286.84 521.89L307.975 533.83M307.975 533.83L300.125 553.852" stroke="black" stroke-width="5" stroke-linecap="round" stroke-linejoin="round"/>
<path d="M71.6354 186.502L40.4025 221.817C40.4025 221.817 35.7754 223.002 29.4131 220.632C23.0508 218.263 20.5592 217.964 20.1588 207.007C20.1588 201.082 23.0507 192.196 27.5321 185.104C27.5321 185.104 35.5509 170.652 47.5791 169.719C59.6073 168.787 71.6354 186.502 71.6354 186.502Z" fill="#5C3F3F"/>
<path d="M141.217 158.383L116.131 166.704C116.131 166.704 110.234 164.81 104.333 158.383C98.4323 151.956 92.811 131.691 98.404 120.956C101.673 115.293 107.14 110.934 116.131 107.087C116.131 107.087 127.074 100.11 141.217 107.087C155.36 114.064 141.217 158.383 141.217 158.383Z" fill="#5C3F3F"/>
<path d="M322.368 171.512C334.865 173.716 343.996 184.896 349.064 200.012C354.166 215.233 355.408 235.063 351.727 255.936C348.047 276.809 340.098 295.018 330.097 307.576C320.165 320.047 307.761 327.431 295.264 325.228C282.767 323.024 273.636 311.843 268.568 296.726C263.466 281.506 262.224 261.676 265.905 240.803C269.585 219.93 277.534 201.721 287.534 189.163C297.467 176.691 309.871 169.309 322.368 171.512Z" fill="#5C3F3F" stroke="black" stroke-width="5"/>
<path d="M229.555 377.325L222.879 388.773L207.097 396.004L209.222 377.325H229.555Z" fill="#5C3F3F"/>
<path d="M314.5 370.966L294.5 364.501V390.501L312.712 386.984L314.5 370.966Z" fill="#D0A38F"/>
<path d="M326.672 384.555L331.528 377.325L324.851 374.312L314.5 370.966L312.712 386.984L326.672 384.555Z" fill="#5C3F3F"/>
<path d="M292.681 226.08L309.07 240.541M323.03 238.131L337.598 223.067M315.14 247.17L312.712 308.029M188.888 377.325H209.222M191.316 403.235L207.097 396.004M209.222 377.325H229.555L222.879 388.773L207.097 396.004M209.222 377.325L207.097 396.004M314.5 370.966L324.851 374.312L331.528 377.325L326.672 384.555L312.712 386.984M314.5 370.966L294.5 364.501V390.501L312.712 386.984M314.5 370.966L312.712 386.984" stroke="black" stroke-width="5" stroke-linecap="round" stroke-linejoin="round"/>
<path d="M196.143 249.715L124.436 237.41" stroke="black" stroke-width="8" stroke-linecap="round" stroke-linejoin="round"/>
<path d="M307.5 334.5C307.5 334.5 290.706 327.435 281.5 334.5C272.294 341.566 284.5 349.371 296.634 349.371L307.5 334.5Z" fill="#FF9A9A"/>
<path d="M307.5 334.5C307.5 334.5 290.706 327.435 281.5 334.5C272.294 341.566 284.5 349.371 296.634 349.371L307.5 334.5Z" stroke="black" stroke-width="5" stroke-linecap="round" stroke-linejoin="round"/>
</g>
<path d="M32.6202 89.7942C47.471 99.4747 76.7937 97.3691 88.7916 93.0701C88.7916 93.0701 138.381 71.8855 161.304 61.8428C184.228 51.8 293.439 37.7064 296.151 25.7877C293.673 16.4842 183.621 12.4897 115.66 30.1466C66.7993 46.1318 32.394 78.2362 32.6202 89.7942Z" fill="#41553D"/>
<path fill-rule="evenodd" clip-rule="evenodd" d="M59.1899 158.025L62.7155 157.592C96.3569 157.84 110.263 159.627 180.783 147.616C228.026 134.713 253.232 125.915 295.712 107.225C301.025 103.045 303.666 93.8836 307.509 59.9982C310.339 47.4412 303.778 30.8958 296.151 25.7877C293.439 37.7064 184.228 51.8 161.304 61.8428C138.381 71.8855 88.7916 93.0701 88.7916 93.0701C76.7937 97.3691 47.471 99.4747 32.6202 89.7942C31.1909 109.327 29.8858 116.11 59.1899 158.025ZM285.876 46.5473L275.143 61.1464L260.453 62.9501L264.786 78.8078L258.61 96.5209L271.647 90.9641L279.621 97.6147L284.034 80.118L295.887 67.3593L287.825 62.4151L285.876 46.5473Z" fill="#5A7455"/>
<path d="M62.7155 157.592L72.3507 175.342L115.915 173.101C155.691 167.26 178.293 166.871 217.201 152.752C249.758 143.793 267.627 137.804 297.558 122.257C298.891 120.838 298.956 118.562 295.712 107.225C253.232 125.915 228.026 134.713 180.783 147.616C110.263 159.627 96.3569 157.84 62.7155 157.592Z" fill="#41553D"/>
<path d="M275.143 61.1464L285.876 46.5473L287.825 62.4151L295.887 67.3593L284.034 80.118L279.621 97.6147L271.647 90.9641L258.61 96.5209L264.786 78.8078L260.453 62.9501L275.143 61.1464Z" fill="#EC4D48"/>
<path d="M353.225 140.855C369.653 130.927 318.751 124.222 297.558 122.257C267.627 137.804 249.758 143.793 217.201 152.752C178.293 166.871 155.691 167.26 115.915 173.101L242.449 170.91C307.585 161.156 336.797 150.782 353.225 140.855Z" fill="#5A7455"/>
<path d="M62.7155 157.592L72.3507 175.342L115.915 173.101M62.7155 157.592L59.1899 158.025C29.8858 116.11 31.1909 109.327 32.6202 89.7942M62.7155 157.592C96.3569 157.84 110.263 159.627 180.783 147.616C228.026 134.713 253.232 125.915 295.712 107.225M32.6202 89.7942C47.471 99.4747 76.7937 97.3691 88.7916 93.0701C88.7916 93.0701 138.381 71.8855 161.304 61.8428C184.228 51.8 293.439 37.7064 296.151 25.7877M32.6202 89.7942C32.394 78.2362 66.7993 46.1318 115.66 30.1466C183.621 12.4897 293.673 16.4842 296.151 25.7877M296.151 25.7877C303.778 30.8958 310.339 47.4412 307.509 59.9982C303.666 93.8836 301.025 103.045 295.712 107.225M295.712 107.225C298.956 118.562 298.891 120.838 297.558 122.257M297.558 122.257C318.751 124.222 369.653 130.927 353.225 140.855C336.797 150.782 307.585 161.156 242.449 170.91L115.915 173.101M297.558 122.257C267.627 137.804 249.758 143.793 217.201 152.752C178.293 166.871 155.691 167.26 115.915 173.101M275.143 61.1464L285.876 46.5473L287.825 62.4151L295.887 67.3593L284.034 80.118L279.621 97.6147L271.647 90.9641L258.61 96.5209L264.786 78.8078L260.453 62.9501L275.143 61.1464Z" stroke="black" stroke-width="5"/>
<path d="M335.426 360.915C349.354 352.873 363.69 348.83 375.535 348.689C387.471 348.547 396.286 352.328 400.246 359.187C404.206 366.047 403.073 375.571 396.982 385.837C390.938 396.024 380.268 406.418 366.34 414.46C352.411 422.501 338.075 426.544 326.23 426.685C314.295 426.828 305.48 423.046 301.519 416.187C297.559 409.328 298.692 399.803 304.783 389.538C310.828 379.35 321.497 368.956 335.426 360.915Z" fill="#7F7B6B" stroke="black" stroke-width="5" stroke-linejoin="round"/>
<path d="M332.425 351.915C346.354 343.873 360.69 339.83 372.535 339.689C384.47 339.547 393.286 343.328 397.246 350.187C401.206 357.047 400.073 366.571 393.982 376.837C387.937 387.024 377.268 397.418 363.339 405.46C349.411 413.501 335.075 417.544 323.23 417.685C311.295 417.828 302.479 414.046 298.519 407.187C294.559 400.328 295.692 390.803 301.783 380.538C307.827 370.35 318.497 359.956 332.425 351.915Z" fill="#FFD814" stroke="black" stroke-width="5" stroke-linejoin="round"/>
<path d="M338.713 358.702L364.767 392.887" stroke="black" stroke-width="5" stroke-linecap="round" stroke-linejoin="round"/>
<path d="M361.074 357.766C334.96 367.386 328.97 372.928 326.657 382.958C328.785 388.314 340.359 384.805 340.359 384.805C340.359 384.805 354.868 375.236 363.458 371.468C363.458 371.468 367.604 369.075 374.822 372.003C382.041 374.931 347.08 396.446 347.08 396.446" stroke="black" stroke-width="5" stroke-linecap="round" stroke-linejoin="round"/>
<defs>
<filter id="filter0_d_45_18" x="0.499756" y="90.9219" width="379.851" height="495.43" filterUnits="userSpaceOnUse" color-interpolation-filters="sRGB">
<feFlood flood-opacity="0" result="BackgroundImageFix"/>
<feColorMatrix in="SourceAlpha" type="matrix" values="0 0 0 0 0 0 0 0 0 0 0 0 0 0 0 0 0 0 127 0" result="hardAlpha"/>
<feOffset dx="20" dy="26"/>
<feGaussianBlur stdDeviation="2"/>
<feComposite in2="hardAlpha" operator="out"/>
<feColorMatrix type="matrix" values="0 0 0 0 0 0 0 0 0 0 0 0 0 0 0 0 0 0 0.25 0"/>
<feBlend mode="normal" in2="BackgroundImageFix" result="effect1_dropShadow_45_18"/>
<feBlend mode="normal" in="SourceGraphic" in2="effect1_dropShadow_45_18" result="shape"/>
</filter>
</defs>
</svg>
