<svg width="324" height="164" viewBox="0 0 324 164" fill="none" xmlns="http://www.w3.org/2000/svg">
<path d="M5.3356 54.9172C18.896 66.3353 48.2567 67.819 60.689 65.0142C60.689 65.0142 112.49 50.0309 136.467 42.8568C160.444 35.6826 270.559 35.0035 274.703 23.5041C273.377 13.9679 164.631 -3.40884 95.026 5.83418C44.581 15.7456 6.51963 43.4177 5.3356 54.9172Z" fill="#41553D"/>
<path fill-rule="evenodd" clip-rule="evenodd" d="M23.3921 125.877H26.9442C60.3045 130.224 73.8894 133.692 145.347 130.365C193.81 123.315 219.901 117.655 264.342 104.281C270.125 100.779 273.863 92.0083 281.807 58.8438C286.146 46.7253 281.65 29.5037 274.703 23.5041C270.559 35.0035 160.444 35.6826 136.467 42.8568C112.49 50.0309 60.689 65.0142 60.689 65.0142C48.2567 67.819 18.896 66.3353 5.3356 54.9172C1.5365 74.1302 -0.585445 80.7034 23.3921 125.877ZM261.974 42.8567L249.542 56.039H234.742L237.11 72.3065L228.821 89.135L242.438 85.2083L249.542 92.7812L256.054 75.9527L269.375 64.7337L261.974 58.8438V42.8567Z" fill="#5A7455"/>
<path d="M26.9442 125.877L34.3444 144.669L77.8575 147.754C118.048 146.804 140.529 149.173 180.868 139.901C214.274 134.976 232.74 131.209 264.342 119.426C265.839 118.18 266.18 115.929 264.342 104.281C219.901 117.655 193.81 123.315 145.347 130.365C73.8894 133.692 60.3045 130.224 26.9442 125.877Z" fill="#41553D"/>
<path d="M249.542 56.039L261.974 42.8567V58.8438L269.375 64.7337L256.054 75.9527L249.542 92.7812L242.438 85.2083L228.821 89.135L237.11 72.3065L234.742 56.039H249.542Z" fill="#EC4D48"/>
<path d="M317.328 144.669C334.843 136.817 285.138 123.959 264.342 119.426C232.74 131.209 214.274 134.976 180.868 139.901C140.529 149.173 118.048 146.804 77.8575 147.754L203.715 161C269.554 159.257 299.812 152.521 317.328 144.669Z" fill="#5A7455"/>
<path d="M26.9442 125.877L34.3444 144.669L77.8575 147.754M26.9442 125.877H23.3921C-0.585445 80.7034 1.5365 74.1302 5.3356 54.9172M26.9442 125.877C60.3045 130.224 73.8894 133.692 145.347 130.365C193.81 123.315 219.901 117.655 264.342 104.281M5.3356 54.9172C18.896 66.3353 48.2567 67.819 60.689 65.0142C60.689 65.0142 112.49 50.031 136.467 42.8568C160.444 35.6826 270.559 35.0035 274.703 23.5041M5.3356 54.9172C6.51963 43.4177 44.581 15.7456 95.026 5.83418C164.631 -3.40884 273.377 13.9679 274.703 23.5041M274.703 23.5041C281.65 29.5037 286.146 46.7253 281.807 58.8438C273.863 92.0083 270.125 100.779 264.342 104.281M264.342 104.281C266.18 115.929 265.839 118.18 264.342 119.426M264.342 119.426C285.138 123.959 334.843 136.817 317.328 144.669C299.812 152.521 269.554 159.257 203.715 161L77.8575 147.754M264.342 119.426C232.74 131.209 214.274 134.976 180.868 139.901C140.529 149.173 118.048 146.804 77.8575 147.754M249.542 56.039L261.974 42.8567V58.8438L269.375 64.7337L256.054 75.9527L249.542 92.7812L242.438 85.2083L228.821 89.135L237.11 72.3065L234.742 56.039H249.542Z" stroke="black" stroke-width="5"/>
</svg>
