<svg width="383" height="497" viewBox="0 0 383 497" fill="none" xmlns="http://www.w3.org/2000/svg">
<g filter="url(#filter0_d_45_22)">
<path d="M346.152 377.052L324.99 393.657L340.193 407.078L350.821 380.543C351.329 379.277 350.921 377.826 349.827 377.009C348.734 376.191 347.226 376.209 346.152 377.052Z" fill="#5C3F3F"/>
<path d="M323.346 451.857L321.398 450.284L309.975 443.83L302.125 463.851H309.372C309.88 463.851 310.381 463.723 310.827 463.478L322.903 456.844C323.784 456.36 324.367 455.469 324.456 454.469C324.545 453.468 324.128 452.489 323.346 451.857Z" fill="#5C3F3F"/>
<path d="M144.552 4.15491C136.859 3.25768 130.648 3.17244 124.484 3.96057C117.879 4.45359 111.449 5.84314 103.687 9.30917C95.0675 13.6749 91.1461 24.5062 90.7606 25.0735C90.3752 25.6408 87.7915 38.0311 89.6178 48.27C89.6178 48.27 89.6352 48.4115 89.6579 48.4997C89.6805 48.5878 89.7334 48.72 89.7334 48.72C89.7334 48.72 98.5616 71.1141 104.719 79.4359L75.011 85.139L70.113 79.4983C65.9071 74.507 62.2312 70.7353 58.1563 68.6633C53.9151 66.5067 49.5659 66.3365 44.3928 67.6715C38.4447 68.1101 33.9646 69.8906 29.9594 73.2498C26.0499 76.5289 22.7054 81.2303 18.8189 87.0825L18.6608 87.3216L18.55 87.5866C12.7952 101.349 12.4787 101.626 12.4787 114.893L13.6864 122.733L14.9811 126.822C18.4925 134.259 23.5639 138.59 30.522 141.344C30.3304 141.95 30.1223 142.635 29.8993 143.393C29.1237 146.029 28.147 149.623 27.0333 154.036C24.8051 162.865 22.0151 175.026 19.1774 189.442C13.504 218.265 7.62419 256.187 5.67336 294.598C3.72539 332.954 5.67868 372.064 15.8456 403.127C26.0333 434.254 44.6847 457.824 76.3284 463.798C76.5133 463.833 76.7017 463.851 76.8898 463.851H302.125L309.975 443.83L321.398 450.284L340.159 407.159C340.17 407.132 340.182 407.105 340.193 407.078L324.99 393.657L303.951 401.785L296.083 349.029L294.896 263.053C319.691 237.915 330.97 198.429 335.66 164.36C338.044 147.041 338.749 130.956 338.612 118.575C338.544 112.384 338.265 107.094 337.876 103.02C337.502 99.1015 336.997 95.9316 336.329 94.2626C332.027 83.5209 324.125 79.4771 319.176 77.006C318.583 76.7099 317.707 76.4359 316.832 76.1897C315.872 75.9193 314.635 75.6086 313.155 75.2675C310.19 74.5841 306.169 73.7607 301.266 72.8776C291.457 71.1109 278.061 69.0944 262.437 67.4725C232.47 64.3618 194.178 62.6917 157.223 67.0838C162.782 48.5742 165.378 35.3771 164.297 25.7578C163.699 20.4413 161.971 16.0842 158.931 12.5306C155.923 9.01487 151.819 6.50508 146.842 4.533L146.488 4.39284L146.111 4.34454L144.552 4.15491Z" fill="#D0A38F"/>
<path d="M324.99 393.657L303.951 401.785L296.083 349.029L294.896 263.053C319.691 237.915 330.97 198.429 335.66 164.36C338.044 147.041 338.749 130.956 338.612 118.575C338.544 112.384 338.265 107.094 337.876 103.02C337.502 99.1015 336.997 95.9316 336.329 94.2626C332.027 83.5208 324.125 79.4771 319.176 77.006C318.583 76.7099 317.707 76.4359 316.833 76.1897C315.872 75.9193 314.635 75.6086 313.155 75.2675C310.19 74.5841 306.169 73.7607 301.266 72.8776C291.457 71.1109 278.061 69.0944 262.437 67.4725C232.47 64.3618 194.178 62.6917 157.223 67.0838C162.782 48.5742 165.378 35.3771 164.297 25.7578C163.699 20.4413 161.971 16.0842 158.931 12.5306C155.923 9.01487 151.819 6.50508 146.842 4.533L146.488 4.39284L146.111 4.34454L144.552 4.15491C136.859 3.25768 130.648 3.17244 124.484 3.96057C117.879 4.45359 111.449 5.84314 103.687 9.30917C95.0675 13.6749 91.1461 24.5062 90.7606 25.0735C90.3752 25.6408 87.7915 38.0311 89.6178 48.27C89.6178 48.27 89.6352 48.4115 89.6579 48.4997C89.6805 48.5878 89.7334 48.72 89.7334 48.72C89.7334 48.72 98.5616 71.1141 104.719 79.4359L75.011 85.139L70.113 79.4983C65.9071 74.507 62.2312 70.7353 58.1563 68.6633C53.9151 66.5067 49.5659 66.3365 44.3928 67.6715C38.4447 68.1101 33.9646 69.8906 29.9594 73.2498C26.0499 76.5289 22.7054 81.2303 18.8189 87.0825L18.6608 87.3216L18.55 87.5866C12.7952 101.349 12.4787 101.626 12.4787 114.893L13.6864 122.733L14.9811 126.822C18.4925 134.259 23.5639 138.59 30.522 141.344C30.3304 141.95 30.1223 142.635 29.8993 143.393C29.1237 146.029 28.147 149.623 27.0333 154.036C24.8051 162.865 22.0151 175.026 19.1774 189.442C13.504 218.265 7.62419 256.187 5.67336 294.598C3.72539 332.954 5.67868 372.064 15.8456 403.127C26.0333 434.254 44.6847 457.824 76.3284 463.798C76.5133 463.833 76.7017 463.851 76.8898 463.851H302.125M324.99 393.657L346.152 377.052C347.226 376.209 348.734 376.191 349.827 377.009C350.921 377.826 351.329 379.277 350.821 380.543L340.193 407.078M324.99 393.657L340.193 407.078M340.193 407.078C340.182 407.105 340.17 407.132 340.159 407.159L321.398 450.284M321.398 450.284L323.346 451.857C324.128 452.489 324.545 453.468 324.456 454.469C324.367 455.469 323.784 456.36 322.903 456.844L310.827 463.478C310.381 463.723 309.88 463.851 309.372 463.851H302.125M321.398 450.284L309.975 443.83M288.841 431.889L309.975 443.83M309.975 443.83L302.125 463.851" stroke="black" stroke-width="5" stroke-linecap="round" stroke-linejoin="round"/>
<path d="M73.6356 96.5018L42.4026 131.817C42.4026 131.817 37.7755 133.002 31.4132 130.632C25.0509 128.262 22.5593 127.964 22.1589 117.006C22.1589 111.082 25.0509 102.195 29.5323 95.1032C29.5323 95.1032 37.551 80.6511 49.5792 79.7187C61.6074 78.7863 73.6356 96.5018 73.6356 96.5018Z" fill="#5C3F3F"/>
<path d="M143.217 68.3828L118.131 76.7039C118.131 76.7039 112.235 74.8095 106.333 68.3825C100.432 61.9554 94.8111 41.6907 100.404 30.9554C103.673 25.2929 109.14 20.9335 118.131 17.0863C118.131 17.0863 129.074 10.1091 143.217 17.0863C157.36 24.0636 143.217 68.3828 143.217 68.3828Z" fill="#5C3F3F"/>
<path d="M324.368 81.5116C336.865 83.7151 345.996 94.8954 351.064 110.012C356.166 125.232 357.408 145.062 353.727 165.935C350.047 186.809 342.098 205.018 332.097 217.575C322.165 230.047 309.761 237.431 297.264 235.227C284.767 233.024 275.636 221.843 270.568 206.726C265.466 191.505 264.224 171.676 267.905 150.802C271.585 129.929 279.534 111.72 289.534 99.1626C299.467 86.691 311.871 79.308 324.368 81.5116Z" fill="#5C3F3F" stroke="black" stroke-width="5"/>
<path d="M231.555 287.324L224.879 298.773L209.097 306.004L211.222 287.324H231.555Z" fill="#5C3F3F"/>
<path d="M316.5 280.965L296.5 274.5V300.5L314.712 296.984L316.5 280.965Z" fill="#D0A38F"/>
<path d="M328.672 294.555L333.528 287.324L326.851 284.311L316.5 280.965L314.712 296.984L328.672 294.555Z" fill="#5C3F3F"/>
<path d="M294.681 136.079L311.07 150.541M325.03 148.131L339.598 133.066M317.14 157.169L314.712 218.029M190.888 287.324H211.222M193.316 313.235L209.097 306.004M211.222 287.324H231.555L224.879 298.773L209.097 306.004M211.222 287.324L209.097 306.004M316.5 280.965L326.851 284.311L333.528 287.324L328.672 294.555L314.712 296.984M316.5 280.965L296.5 274.5V300.5L314.712 296.984M316.5 280.965L314.712 296.984" stroke="black" stroke-width="5" stroke-linecap="round" stroke-linejoin="round"/>
<path d="M198.514 150.225L126.065 156.898" stroke="black" stroke-width="8" stroke-linecap="round" stroke-linejoin="round"/>
<path d="M275.425 86.9151C289.354 78.8735 303.69 74.8303 315.535 74.6892C327.47 74.5471 336.286 78.328 340.246 85.1874C344.206 92.0468 343.073 101.572 336.982 111.837C330.937 122.024 320.268 132.418 306.34 140.46C292.411 148.501 278.075 152.544 266.23 152.686C254.295 152.828 245.479 149.047 241.519 142.187C237.559 135.328 238.692 125.803 244.783 115.538C250.828 105.35 261.497 94.9566 275.425 86.9151Z" fill="#7F7B6B" stroke="black" stroke-width="5" stroke-linejoin="round"/>
<path d="M272.425 77.9156C286.354 69.874 300.69 65.8308 312.535 65.6897C324.47 65.5476 333.286 69.3285 337.246 76.1879C341.206 83.0473 340.073 92.5721 333.982 102.837C327.937 113.025 317.268 123.419 303.34 131.46C289.411 139.502 275.075 143.545 263.23 143.686C251.295 143.828 242.479 140.047 238.519 133.188C234.559 126.329 235.692 116.804 241.783 106.538C247.828 96.351 258.497 85.9571 272.425 77.9156Z" fill="#FFD814" stroke="black" stroke-width="5" stroke-linejoin="round"/>
<path d="M278.713 84.7026L304.767 118.887" stroke="black" stroke-width="5" stroke-linecap="round" stroke-linejoin="round"/>
<path d="M301.074 83.7667C274.96 93.3865 268.97 98.9287 266.657 108.959C268.785 114.314 280.359 110.805 280.359 110.805C280.359 110.805 294.868 101.237 303.458 97.4692C303.458 97.4692 307.604 95.0755 314.822 98.0036C322.041 100.932 287.08 122.447 287.08 122.447" stroke="black" stroke-width="5" stroke-linecap="round" stroke-linejoin="round"/>
</g>
<path d="M25.1796 259C121.624 283.228 186.906 286.964 294.218 259C300.749 263.01 301.32 265.874 308.739 273.322C311.39 277.905 314.595 283.018 311.39 284.395C338.866 355.61 327.418 415.785 297.652 487L265.024 471.542C255.812 410.717 259.872 332.234 265.024 314.568C183.761 343.211 86.7474 336.91 4 282.186C6.06764 270.345 11.6251 265.634 25.1796 259Z" fill="#FF4747"/>
<path d="M265.024 314.568C183.761 343.211 86.7474 336.91 4 282.186C6.06764 270.345 11.6251 265.634 25.1796 259C121.624 283.228 186.906 286.964 294.218 259C300.749 263.01 301.32 265.874 308.739 273.322C311.39 277.905 314.595 283.018 311.39 284.395M265.024 314.568C259.872 332.234 255.812 410.717 265.024 471.542L297.652 487C327.418 415.784 338.866 355.61 311.39 284.395M265.024 314.568C274.498 311.228 297.652 293.228 311.39 284.395" stroke="black" stroke-width="8" stroke-linecap="round" stroke-linejoin="round"/>
<g filter="url(#filter1_d_45_22)">
<path d="M106 169L18 201" stroke="black" stroke-width="8" stroke-linecap="round" stroke-linejoin="bevel"/>
</g>
<circle cx="171" cy="160" r="66" stroke="black" stroke-width="8"/>
<path d="M232.5 131.5L238 128" stroke="black" stroke-width="5"/>
<defs>
<filter id="filter0_d_45_22" x="2.49976" y="0.921387" width="379.851" height="495.43" filterUnits="userSpaceOnUse" color-interpolation-filters="sRGB">
<feFlood flood-opacity="0" result="BackgroundImageFix"/>
<feColorMatrix in="SourceAlpha" type="matrix" values="0 0 0 0 0 0 0 0 0 0 0 0 0 0 0 0 0 0 127 0" result="hardAlpha"/>
<feOffset dx="20" dy="26"/>
<feGaussianBlur stdDeviation="2"/>
<feComposite in2="hardAlpha" operator="out"/>
<feColorMatrix type="matrix" values="0 0 0 0 0 0 0 0 0 0 0 0 0 0 0 0 0 0 0.25 0"/>
<feBlend mode="normal" in2="BackgroundImageFix" result="effect1_dropShadow_45_22"/>
<feBlend mode="normal" in="SourceGraphic" in2="effect1_dropShadow_45_22" result="shape"/>
</filter>
<filter id="filter1_d_45_22" x="9.99902" y="164.999" width="104.002" height="56.002" filterUnits="userSpaceOnUse" color-interpolation-filters="sRGB">
<feFlood flood-opacity="0" result="BackgroundImageFix"/>
<feColorMatrix in="SourceAlpha" type="matrix" values="0 0 0 0 0 0 0 0 0 0 0 0 0 0 0 0 0 0 127 0" result="hardAlpha"/>
<feOffset dy="12"/>
<feGaussianBlur stdDeviation="2"/>
<feComposite in2="hardAlpha" operator="out"/>
<feColorMatrix type="matrix" values="0 0 0 0 0 0 0 0 0 0 0 0 0 0 0 0 0 0 0.25 0"/>
<feBlend mode="normal" in2="BackgroundImageFix" result="effect1_dropShadow_45_22"/>
<feBlend mode="normal" in="SourceGraphic" in2="effect1_dropShadow_45_22" result="shape"/>
</filter>
</defs>
</svg>
