<svg width="385" height="497" viewBox="0 0 385 497" fill="none" xmlns="http://www.w3.org/2000/svg">
<g filter="url(#filter0_d_31_24)">
<path d="M344.152 377.053L322.99 393.658L338.193 407.079L348.821 380.544C349.329 379.277 348.921 377.827 347.827 377.009C346.734 376.192 345.226 376.21 344.152 377.053Z" fill="#5C3F3F"/>
<path d="M321.346 451.858L319.398 450.284L307.975 443.831L300.125 463.852H307.372C307.88 463.852 308.381 463.723 308.827 463.479L320.903 456.845C321.784 456.361 322.367 455.47 322.456 454.469C322.545 453.469 322.128 452.489 321.346 451.858Z" fill="#5C3F3F"/>
<path d="M142.552 4.15564C134.859 3.25841 128.648 3.17317 122.484 3.9613C115.879 4.45433 109.449 5.84387 101.687 9.30991C93.0675 13.6756 89.1461 24.507 88.7606 25.0742C88.3752 25.6415 85.7915 38.0318 87.6178 48.2708C87.6178 48.2708 87.6352 48.4122 87.6579 48.5004C87.6805 48.5885 87.7334 48.7207 87.7334 48.7207C87.7334 48.7207 96.5616 71.1148 102.719 79.4366L73.011 85.1397L68.113 79.499C63.9071 74.5077 60.2312 70.736 56.1563 68.664C51.9151 66.5075 47.5659 66.3372 42.3928 67.6723C36.4447 68.1109 31.9646 69.8913 27.9594 73.2506C24.0499 76.5296 20.7054 81.231 16.8189 87.0832L16.6608 87.3223L16.55 87.5873C10.7952 101.35 10.4787 101.627 10.4787 114.894L11.6864 122.734L12.9811 126.823C16.4925 134.26 21.5639 138.591 28.522 141.344C28.3304 141.951 28.1223 142.636 27.8993 143.394C27.1237 146.029 26.147 149.624 25.0333 154.037C22.8051 162.866 20.0151 175.026 17.1774 189.443C11.504 218.266 5.62419 256.188 3.67336 294.599C1.72539 332.954 3.67868 372.064 13.8456 403.128C24.0333 434.255 42.6847 457.825 74.3284 463.799C74.5133 463.834 74.7017 463.852 74.8898 463.852H300.125L307.975 443.831L319.398 450.284L338.159 407.16C338.17 407.133 338.182 407.106 338.193 407.079L322.99 393.658L301.951 401.785L294.083 349.03L292.896 263.054C317.691 237.915 328.97 198.429 333.66 164.361C336.044 147.042 336.749 130.957 336.612 118.575C336.544 112.385 336.265 107.095 335.876 103.021C335.502 99.1022 334.997 95.9323 334.329 94.2634C330.027 83.5216 322.125 79.4779 317.176 77.0067C316.583 76.7106 315.707 76.4367 314.833 76.1905C313.872 75.92 312.635 75.6094 311.155 75.2682C308.19 74.5848 304.169 73.7615 299.266 72.8784C289.457 71.1116 276.061 69.0951 260.437 67.4732C230.47 64.3625 192.178 62.6924 155.223 67.0845C160.782 48.575 163.378 35.3779 162.297 25.7585C161.699 20.4421 159.971 16.085 156.931 12.5313C153.923 9.0156 149.819 6.50582 144.842 4.53373L144.488 4.39357L144.111 4.34528L142.552 4.15564Z" fill="#D0A38F"/>
<path d="M322.99 393.658L301.951 401.785L294.083 349.03L292.896 263.054C317.691 237.915 328.97 198.429 333.66 164.361C336.044 147.042 336.749 130.957 336.612 118.575C336.544 112.385 336.265 107.095 335.876 103.021C335.502 99.1022 334.997 95.9323 334.329 94.2634C330.027 83.5216 322.125 79.4779 317.176 77.0067C316.583 76.7106 315.707 76.4367 314.833 76.1905C313.872 75.92 312.635 75.6094 311.155 75.2682C308.19 74.5848 304.169 73.7615 299.266 72.8784C289.457 71.1116 276.061 69.0951 260.437 67.4732C230.47 64.3625 192.178 62.6924 155.223 67.0845C160.782 48.575 163.378 35.3779 162.297 25.7585C161.699 20.4421 159.971 16.085 156.931 12.5313C153.923 9.0156 149.819 6.50582 144.842 4.53373L144.488 4.39357L144.111 4.34528L142.552 4.15564C134.859 3.25841 128.648 3.17317 122.484 3.9613C115.879 4.45433 109.449 5.84387 101.687 9.30991C93.0675 13.6756 89.1461 24.507 88.7606 25.0742C88.3752 25.6415 85.7915 38.0318 87.6178 48.2708C87.6178 48.2708 87.6352 48.4122 87.6579 48.5004C87.6805 48.5885 87.7334 48.7207 87.7334 48.7207C87.7334 48.7207 96.5616 71.1148 102.719 79.4366L73.011 85.1397L68.113 79.499C63.9071 74.5077 60.2312 70.736 56.1563 68.664C51.9151 66.5075 47.5659 66.3372 42.3928 67.6723C36.4447 68.1109 31.9646 69.8913 27.9594 73.2506C24.0499 76.5296 20.7054 81.231 16.8189 87.0832L16.6608 87.3223L16.55 87.5873C10.7952 101.35 10.4787 101.627 10.4787 114.894L11.6864 122.734L12.9811 126.823C16.4925 134.26 21.5639 138.591 28.522 141.344C28.3304 141.951 28.1223 142.636 27.8993 143.394C27.1237 146.029 26.147 149.624 25.0333 154.037C22.8051 162.866 20.0151 175.026 17.1774 189.443C11.504 218.266 5.62419 256.188 3.67336 294.599C1.72539 332.954 3.67868 372.064 13.8456 403.128C24.0333 434.255 42.6847 457.825 74.3284 463.799C74.5133 463.834 74.7017 463.852 74.8898 463.852H300.125M322.99 393.658L344.152 377.053C345.226 376.21 346.734 376.192 347.827 377.009C348.921 377.827 349.329 379.277 348.821 380.544L338.193 407.079M322.99 393.658L338.193 407.079M338.193 407.079C338.182 407.106 338.17 407.133 338.159 407.16L319.398 450.284M319.398 450.284L321.346 451.858C322.128 452.489 322.545 453.469 322.456 454.469C322.367 455.47 321.784 456.361 320.903 456.845L308.827 463.479C308.381 463.723 307.88 463.852 307.372 463.852H300.125M319.398 450.284L307.975 443.831M286.841 431.89L307.975 443.831M307.975 443.831L300.125 463.852" stroke="black" stroke-width="5" stroke-linecap="round" stroke-linejoin="round"/>
<path d="M71.6356 96.5026L40.4026 131.818C40.4026 131.818 35.7755 133.002 29.4132 130.633C23.0509 128.263 20.5593 127.964 20.1589 117.007C20.1589 111.083 23.0509 102.196 27.5323 95.104C27.5323 95.104 35.551 80.6518 47.5792 79.7194C59.6074 78.787 71.6356 96.5026 71.6356 96.5026Z" fill="#5C3F3F"/>
<path d="M141.217 68.3838L116.131 76.7049C116.131 76.7049 110.235 74.8105 104.333 68.3834C98.4324 61.9564 92.8111 41.6917 98.4041 30.9564C101.673 25.2939 107.14 20.9345 116.131 17.0873C116.131 17.0873 127.074 10.1101 141.217 17.0873C155.361 24.0645 141.217 68.3838 141.217 68.3838Z" fill="#5C3F3F"/>
<path d="M322.368 81.5123C334.865 83.7159 343.996 94.8961 349.064 110.013C354.166 125.233 355.408 145.063 351.727 165.936C348.047 186.809 340.098 205.018 330.097 217.576C320.165 230.048 307.761 237.431 295.264 235.228C282.767 233.024 273.636 221.843 268.568 206.727C263.466 191.506 262.224 171.676 265.905 150.803C269.585 129.93 277.534 111.721 287.534 99.1633C297.467 86.6917 309.871 79.3088 322.368 81.5123Z" fill="#5C3F3F" stroke="black" stroke-width="5"/>
<path d="M229.556 287.325L222.879 298.773L207.097 306.004L209.222 287.325H229.556Z" fill="#5C3F3F"/>
<path d="M314.5 280.966L294.5 274.501V300.501L312.712 296.984L314.5 280.966Z" fill="#D0A38F"/>
<path d="M326.672 294.555L331.528 287.325L324.852 284.312L314.5 280.966L312.712 296.984L326.672 294.555Z" fill="#5C3F3F"/>
<path d="M292.682 136.08L309.07 150.541M323.031 148.131L337.598 133.067M315.14 157.17L312.712 218.029M188.888 287.325H209.222M191.316 313.235L207.097 306.004M209.222 287.325H229.556L222.879 298.773L207.097 306.004M209.222 287.325L207.097 306.004M314.5 280.966L324.852 284.312L331.528 287.325L326.672 294.555L312.712 296.984M314.5 280.966L294.5 274.501V300.501L312.712 296.984M314.5 280.966L312.712 296.984" stroke="black" stroke-width="5" stroke-linecap="round" stroke-linejoin="round"/>
<path d="M196.514 150.226L124.065 156.899" stroke="black" stroke-width="8" stroke-linecap="round" stroke-linejoin="round"/>
<path d="M290.426 96.9151C304.354 88.8735 318.69 84.8303 330.535 84.6892C342.471 84.5471 351.286 88.328 355.246 95.1874C359.206 102.047 358.073 111.572 351.982 121.837C345.938 132.024 335.268 142.418 321.34 150.46C307.411 158.501 293.075 162.544 281.23 162.686C269.295 162.828 260.48 159.047 256.519 152.187C252.559 145.328 253.692 135.803 259.783 125.538C265.828 115.35 276.497 104.957 290.426 96.9151Z" fill="#7F7B6B" stroke="black" stroke-width="5" stroke-linejoin="round"/>
<path d="M287.425 87.9151C301.354 79.8735 315.69 75.8303 327.535 75.6892C339.47 75.5471 348.286 79.328 352.246 86.1874C356.206 93.0468 355.073 102.572 348.982 112.837C342.937 123.024 332.268 133.418 318.339 141.46C304.411 149.501 290.075 153.544 278.23 153.686C266.295 153.828 257.479 150.047 253.519 143.187C249.559 136.328 250.692 126.803 256.783 116.538C262.827 106.35 273.497 95.9566 287.425 87.9151Z" fill="#FFD814" stroke="black" stroke-width="5" stroke-linejoin="round"/>
<path d="M293.713 94.7026L319.767 128.887" stroke="black" stroke-width="5" stroke-linecap="round" stroke-linejoin="round"/>
<path d="M316.074 93.7662C289.96 103.386 283.97 108.928 281.657 118.959C283.785 124.314 295.359 120.805 295.359 120.805C295.359 120.805 309.868 111.237 318.458 107.469C318.458 107.469 322.604 105.075 329.822 108.003C337.041 110.931 302.08 132.446 302.08 132.446" stroke="black" stroke-width="5" stroke-linecap="round" stroke-linejoin="round"/>
</g>
<defs>
<filter id="filter0_d_31_24" x="0.499878" y="0.922119" width="383.567" height="495.43" filterUnits="userSpaceOnUse" color-interpolation-filters="sRGB">
<feFlood flood-opacity="0" result="BackgroundImageFix"/>
<feColorMatrix in="SourceAlpha" type="matrix" values="0 0 0 0 0 0 0 0 0 0 0 0 0 0 0 0 0 0 127 0" result="hardAlpha"/>
<feOffset dx="20" dy="26"/>
<feGaussianBlur stdDeviation="2"/>
<feComposite in2="hardAlpha" operator="out"/>
<feColorMatrix type="matrix" values="0 0 0 0 0 0 0 0 0 0 0 0 0 0 0 0 0 0 0.25 0"/>
<feBlend mode="normal" in2="BackgroundImageFix" result="effect1_dropShadow_31_24"/>
<feBlend mode="normal" in="SourceGraphic" in2="effect1_dropShadow_31_24" result="shape"/>
</filter>
</defs>
</svg>
