<svg width="158" height="210" viewBox="0 0 158 210" fill="none" xmlns="http://www.w3.org/2000/svg">
<path d="M149.404 172.28L140.323 178.922L146.847 184.29L151.408 173.677C151.626 173.17 151.45 172.59 150.981 172.263C150.512 171.936 149.865 171.943 149.404 172.28Z" fill="#5C3F3F"/>
<path d="M139.617 202.202L138.781 201.573L133.879 198.991L130.51 207H133.62C133.838 207 134.053 206.948 134.244 206.851L139.427 204.197C139.805 204.003 140.055 203.647 140.093 203.247C140.131 202.847 139.953 202.455 139.617 202.202Z" fill="#5C3F3F"/>
<path d="M62.888 23.1213C59.5867 22.7624 56.9213 22.7283 54.2762 23.0436C51.4418 23.2408 48.6823 23.7966 45.351 25.183C41.6521 26.9293 39.9692 31.2618 39.8038 31.4887C39.6384 31.7156 38.5296 36.6718 39.3134 40.7673C39.3134 40.7673 39.3209 40.8239 39.3306 40.8592C39.3403 40.8944 39.363 40.9473 39.363 40.9473C39.363 40.9473 43.1516 49.905 45.7939 53.2337L33.0449 55.5149L30.943 53.2587C29.138 51.2621 27.5605 49.7535 25.8118 48.9246C23.9917 48.062 22.1253 47.9939 19.9053 48.5279C17.3527 48.7034 15.43 49.4156 13.7112 50.7593C12.0335 52.0709 10.5982 53.9514 8.93031 56.2923L8.86249 56.388L8.81491 56.494C6.34527 61.999 6.20944 62.1098 6.20944 67.4167L6.72772 70.5526L7.28336 72.1881C8.79026 75.1631 10.9666 76.8954 13.9527 77.9968C13.8704 78.2394 13.7811 78.5134 13.6854 78.8165C13.3526 79.8708 12.9334 81.3087 12.4555 83.0738C11.4993 86.6054 10.3019 91.4696 9.08417 97.2362C6.64947 108.766 4.12616 123.934 3.28897 139.299C2.45301 154.641 3.29125 170.285 7.65435 182.71C12.0264 195.161 20.0305 204.589 33.6103 206.979C33.6896 206.993 33.7705 207 33.8512 207H130.51L133.879 198.991L138.781 201.573L146.832 184.323C146.837 184.312 146.842 184.301 146.847 184.29L140.323 178.922L131.294 182.173L127.917 161.071L127.408 126.681C138.048 116.625 142.889 100.831 144.902 87.2033C145.925 80.2758 146.227 73.8419 146.168 68.8892C146.139 66.4131 146.02 64.2971 145.853 62.6673C145.692 61.0999 145.475 59.832 145.189 59.1644C143.342 54.8677 139.951 53.2502 137.827 52.2617C137.573 52.1433 137.197 52.0337 136.822 51.9352C136.409 51.8271 135.879 51.7028 135.244 51.5663C133.971 51.293 132.245 50.9636 130.141 50.6104C125.932 49.9037 120.183 49.0971 113.478 48.4483C100.618 47.204 84.1849 46.536 68.3259 48.2928C70.7117 40.889 71.8256 35.6102 71.3616 31.7625C71.1052 29.6359 70.3634 27.893 69.0587 26.4716C67.7679 25.0653 66.0066 24.0614 63.8709 23.2725L63.7191 23.2165L63.5571 23.1971L62.888 23.1213Z" fill="#D0A38F"/>
<path d="M140.323 178.922L131.294 182.173L127.917 161.071L127.408 126.681C138.048 116.625 142.889 100.831 144.902 87.2033C145.925 80.2758 146.227 73.8419 146.168 68.8892C146.139 66.4131 146.019 64.2971 145.853 62.6673C145.692 61.0999 145.475 59.832 145.189 59.1644C143.342 54.8677 139.951 53.2502 137.827 52.2617C137.573 52.1433 137.197 52.0337 136.822 51.9352C136.409 51.8271 135.879 51.7028 135.244 51.5663C133.971 51.293 132.245 50.9636 130.141 50.6104C125.932 49.9037 120.183 49.0971 113.478 48.4483C100.618 47.204 84.1848 46.536 68.3259 48.2928C70.7117 40.889 71.8256 35.6102 71.3616 31.7625C71.1052 29.6359 70.3634 27.893 69.0587 26.4716C67.7679 25.0653 66.0066 24.0614 63.8709 23.2725L63.7191 23.2165L63.5571 23.1971L62.888 23.1213C59.5867 22.7624 56.9213 22.7283 54.2762 23.0436C51.4418 23.2408 48.6823 23.7966 45.351 25.183C41.6521 26.9293 39.9692 31.2618 39.8038 31.4887C39.6384 31.7156 38.5296 36.6718 39.3134 40.7673C39.3134 40.7673 39.3209 40.8239 39.3306 40.8592C39.3403 40.8944 39.363 40.9473 39.363 40.9473C39.363 40.9473 43.1516 49.905 45.7939 53.2337L33.0449 55.5149L30.943 53.2587C29.138 51.2621 27.5605 49.7535 25.8118 48.9246C23.9917 48.062 22.1253 47.9939 19.9053 48.5279C17.3527 48.7034 15.43 49.4156 13.7112 50.7593C12.0335 52.0709 10.5982 53.9514 8.93031 56.2923L8.86249 56.388L8.81491 56.494C6.34527 61.999 6.20944 62.1098 6.20944 67.4167L6.72772 70.5526L7.28336 72.1881C8.79026 75.1631 10.9666 76.8954 13.9527 77.9968C13.8704 78.2394 13.7811 78.5134 13.6854 78.8165C13.3526 79.8708 12.9334 81.3087 12.4555 83.0738C11.4993 86.6054 10.3019 91.4696 9.08417 97.2362C6.64947 108.766 4.12616 123.934 3.28897 139.299C2.45301 154.641 3.29125 170.285 7.65435 182.71C12.0264 195.161 20.0305 204.589 33.6103 206.979C33.6896 206.993 33.7705 207 33.8512 207H130.51M140.323 178.922L149.404 172.28C149.865 171.943 150.512 171.936 150.981 172.263C151.45 172.59 151.626 173.17 151.408 173.677L146.847 184.29M140.323 178.922L146.847 184.29M146.847 184.29C146.842 184.301 146.837 184.312 146.832 184.323L138.781 201.573M138.781 201.573L139.617 202.202C139.953 202.455 140.131 202.847 140.093 203.247C140.055 203.647 139.805 204.003 139.427 204.197L134.244 206.851C134.053 206.948 133.838 207 133.62 207H130.51M138.781 201.573L133.879 198.991M124.809 194.215L133.879 198.991M133.879 198.991L130.51 207" stroke="black" stroke-width="5" stroke-linecap="round" stroke-linejoin="round"/>
<path d="M32.4546 60.06L19.0511 74.186C19.0511 74.186 17.0654 74.6599 14.3351 73.7121C11.6047 72.7642 10.5355 72.6447 10.3636 68.2617C10.3636 65.892 11.6047 62.3374 13.5279 59.5006C13.5279 59.5006 16.9691 53.7197 22.131 53.3467C27.2928 52.9738 32.4546 60.06 32.4546 60.06Z" fill="#5C3F3F"/>
<path d="M62.3155 48.8124L51.5498 52.1408C51.5498 52.1408 49.0193 51.3831 46.4869 48.8123C43.9545 46.2415 41.5421 38.1356 43.9424 33.8415C45.3453 31.5764 47.6912 29.8327 51.5498 28.2938C51.5498 28.2938 56.2461 25.5029 62.3155 28.2938C68.3849 31.0847 62.3155 48.8124 62.3155 48.8124Z" fill="#5C3F3F"/>
<path d="M140.334 52.5926C146.374 53.5854 150.591 58.587 152.861 64.8994C155.156 71.2799 155.686 79.4932 154.065 88.0656C152.443 96.638 148.931 104.187 144.433 109.451C139.984 114.659 134.186 118.015 128.146 117.022C122.105 116.029 117.888 111.028 115.618 104.715C113.323 98.3346 112.792 90.1212 114.414 81.5489C116.036 72.9766 119.548 65.4277 124.046 60.1635C128.495 54.9555 134.294 51.5998 140.334 52.5926Z" fill="#5C3F3F" stroke="black" stroke-width="5"/>
<path d="M120.454 123.353C131.676 123.353 140.468 131.792 140.468 141.838C140.468 151.884 131.676 160.322 120.454 160.322C109.233 160.322 100.441 151.884 100.441 141.838C100.441 131.792 109.233 123.353 120.454 123.353Z" fill="#FFD814" stroke="black" stroke-width="5" stroke-linejoin="round"/>
<path d="M121.23 128.089L123.301 154.863" stroke="black" stroke-width="5" stroke-linecap="round" stroke-linejoin="round"/>
<path d="M128.735 134.602C118.358 131.634 115.346 132.767 112.691 137.496C112.375 141.077 116.831 142.803 116.831 142.803C116.831 142.803 123.396 142.155 126.924 142.803C126.924 142.803 128.735 142.803 130.547 146.662C132.358 150.521 116.831 151.245 116.831 151.245" stroke="black" stroke-width="5" stroke-linecap="round" stroke-linejoin="round"/>
<path d="M100.225 136.389L97.3601 140.968L90.5875 143.861L91.4992 136.389H100.225Z" fill="#5C3F3F"/>
<path d="M127.316 75.8909L134.349 81.6756M140.34 80.7115L146.591 74.6858M136.954 84.3269L135.912 108.671M82.773 136.389H91.4992M83.8149 146.753L90.5875 143.861M91.4992 136.389H100.225L97.3601 140.968L90.5875 143.861M91.4992 136.389L90.5875 143.861M141.903 139.281L143.987 136.389L141.121 135.184" stroke="black" stroke-width="5" stroke-linecap="round" stroke-linejoin="round"/>
<path d="M86.0458 81.5496L54.9548 84.2187" stroke="black" stroke-width="8" stroke-linecap="round" stroke-linejoin="round"/>
<g filter="url(#filter0_d_5_12)">
<path d="M99.7514 21.1935H77.864C78.7163 35.0719 83.107 42.0926 94.6014 45.0035C105.889 47.8619 119.579 41.6364 121.639 32.9783C123.386 25.6366 122.17 20.7159 121.76 20.7089C121.724 20.8086 121.695 20.8499 121.674 20.8209C121.695 20.7451 121.724 20.7083 121.76 20.7089C121.939 20.2142 122.279 18.2825 122.525 16.3834C122.732 14.7864 122.871 13.2123 122.792 12.5354C121.88 4.74626 111.43 3.00527 109.794 3.15564C105.216 1.7951 90.3598 9.48253 99.7514 21.1935Z" fill="#FFD814"/>
<path d="M121.639 21.1935C121.639 21.0245 121.651 20.901 121.674 20.8209M121.639 20.472C121.639 20.6785 121.651 20.7899 121.674 20.8209M122.792 12.5354C121.88 4.74626 111.43 3.00527 109.794 3.15564C105.216 1.7951 90.3598 9.48253 99.7514 21.1935H77.864C78.7163 35.0719 83.107 42.0926 94.6014 45.0035C105.889 47.8619 119.579 41.6364 121.639 32.9783C123.386 25.6366 122.17 20.7159 121.76 20.7089M122.792 12.5354H128.591L122.525 16.3834M122.792 12.5354C122.871 13.2123 122.732 14.7864 122.525 16.3834M115.459 12.5354H109.794M99.7514 26.2441C103.134 26.7637 104.401 27.9361 105.931 31.0542C99.9519 36.9875 95.789 35.7777 87.9064 31.0542M122.525 16.3834C122.279 18.2825 121.939 20.2142 121.76 20.7089M121.76 20.7089C121.724 20.8086 121.695 20.8499 121.674 20.8209M121.76 20.7089C121.724 20.7083 121.695 20.7451 121.674 20.8209" stroke="black" stroke-width="5" stroke-linecap="round" stroke-linejoin="round"/>
</g>
<defs>
<filter id="filter0_d_5_12" x="71.364" y="0.5" width="63.7277" height="55.7068" filterUnits="userSpaceOnUse" color-interpolation-filters="sRGB">
<feFlood flood-opacity="0" result="BackgroundImageFix"/>
<feColorMatrix in="SourceAlpha" type="matrix" values="0 0 0 0 0 0 0 0 0 0 0 0 0 0 0 0 0 0 127 0" result="hardAlpha"/>
<feOffset dy="4"/>
<feGaussianBlur stdDeviation="2"/>
<feComposite in2="hardAlpha" operator="out"/>
<feColorMatrix type="matrix" values="0 0 0 0 0 0 0 0 0 0 0 0 0 0 0 0 0 0 0.25 0"/>
<feBlend mode="normal" in2="BackgroundImageFix" result="effect1_dropShadow_5_12"/>
<feBlend mode="normal" in="SourceGraphic" in2="effect1_dropShadow_5_12" result="shape"/>
</filter>
</defs>
</svg>
