<svg width="461" height="618" viewBox="0 0 461 618" fill="none" xmlns="http://www.w3.org/2000/svg">
<g filter="url(#filter0_d_45_21)">
<path d="M405.152 498.052L383.99 514.657L399.193 528.077L409.821 501.543C410.329 500.276 409.921 498.826 408.827 498.008C407.734 497.191 406.226 497.209 405.152 498.052Z" fill="#5C3F3F"/>
<path d="M382.346 572.857L380.398 571.283L368.975 564.829L361.125 584.851H368.372C368.88 584.851 369.381 584.722 369.827 584.477L381.903 577.844C382.784 577.36 383.367 576.469 383.456 575.468C383.545 574.468 383.128 573.488 382.346 572.857Z" fill="#5C3F3F"/>
<path d="M203.552 125.154C195.859 124.257 189.648 124.172 183.484 124.96C176.879 125.453 170.449 126.843 162.687 130.309C154.068 134.674 150.146 145.506 149.761 146.073C149.375 146.64 146.792 159.031 148.618 169.27C148.618 169.27 148.635 169.411 148.658 169.499C148.681 169.587 148.733 169.719 148.733 169.719C148.733 169.719 157.562 192.114 163.719 200.435L134.011 206.139L129.113 200.498C124.907 195.506 121.231 191.735 117.156 189.663C112.915 187.506 108.566 187.336 103.393 188.671C97.4447 189.11 92.9646 190.89 88.9594 194.249C85.0499 197.528 81.7054 202.23 77.8189 208.082L77.6608 208.321L77.55 208.586C71.7952 222.349 71.4787 222.626 71.4787 235.893L72.6864 243.733L73.9811 247.821C77.4925 255.259 82.5639 259.59 89.522 262.343C89.3304 262.95 89.1223 263.635 88.8993 264.393C88.1237 267.028 87.147 270.623 86.0333 275.036C83.8051 283.865 81.0151 296.025 78.1774 310.442C72.504 339.265 66.6242 377.187 64.6734 415.598C62.7254 453.953 64.6787 493.063 74.8456 524.127C85.0333 555.254 103.685 578.824 135.328 584.798C135.513 584.833 135.702 584.851 135.89 584.851H361.125L368.975 564.829L380.398 571.283L399.159 528.159C399.17 528.132 399.182 528.104 399.193 528.077L383.99 514.657L362.951 522.784L355.083 470.028L353.896 384.052C378.691 358.914 389.97 319.428 394.66 285.359C397.044 268.041 397.749 251.956 397.612 239.574C397.544 233.384 397.265 228.094 396.876 224.019C396.502 220.101 395.997 216.931 395.329 215.262C391.027 204.52 383.125 200.477 378.176 198.005C377.583 197.709 376.707 197.435 375.832 197.189C374.872 196.919 373.635 196.608 372.155 196.267C369.19 195.584 365.169 194.76 360.266 193.877C350.457 192.11 337.061 190.094 321.437 188.472C291.47 185.361 253.178 183.691 216.223 188.083C221.782 169.574 224.378 156.377 223.297 146.757C222.699 141.441 220.971 137.084 217.931 133.53C214.923 130.014 210.819 127.505 205.842 125.533L205.488 125.392L205.111 125.344L203.552 125.154Z" fill="#D0A38F"/>
<path d="M383.99 514.657L362.951 522.784L355.083 470.028L353.896 384.052C378.691 358.914 389.97 319.428 394.66 285.359C397.044 268.041 397.749 251.956 397.612 239.574C397.544 233.384 397.265 228.094 396.876 224.019C396.502 220.101 395.997 216.931 395.329 215.262C391.027 204.52 383.125 200.477 378.176 198.005C377.583 197.709 376.707 197.435 375.833 197.189C374.872 196.919 373.635 196.608 372.155 196.267C369.19 195.584 365.169 194.76 360.266 193.877C350.457 192.11 337.061 190.094 321.437 188.472C291.47 185.361 253.178 183.691 216.223 188.083C221.782 169.574 224.378 156.377 223.297 146.757C222.699 141.441 220.971 137.084 217.931 133.53C214.923 130.014 210.819 127.505 205.842 125.533L205.488 125.392L205.111 125.344L203.552 125.154C195.859 124.257 189.648 124.172 183.484 124.96C176.879 125.453 170.449 126.843 162.687 130.309C154.068 134.674 150.146 145.506 149.761 146.073C149.375 146.64 146.792 159.031 148.618 169.27C148.618 169.27 148.635 169.411 148.658 169.499C148.681 169.587 148.733 169.719 148.733 169.719C148.733 169.719 157.562 192.114 163.719 200.435L134.011 206.139L129.113 200.498C124.907 195.506 121.231 191.735 117.156 189.663C112.915 187.506 108.566 187.336 103.393 188.671C97.4447 189.11 92.9646 190.89 88.9594 194.249C85.0499 197.528 81.7054 202.23 77.8189 208.082L77.6608 208.321L77.55 208.586C71.7952 222.349 71.4787 222.626 71.4787 235.893L72.6864 243.733L73.9811 247.821C77.4925 255.259 82.5639 259.59 89.522 262.343C89.3304 262.95 89.1223 263.635 88.8993 264.393C88.1237 267.028 87.147 270.623 86.0333 275.036C83.8051 283.865 81.0151 296.025 78.1774 310.442C72.504 339.265 66.6242 377.187 64.6734 415.598C62.7254 453.953 64.6787 493.063 74.8456 524.127C85.0333 555.254 103.685 578.824 135.328 584.798C135.513 584.833 135.702 584.851 135.89 584.851H361.125M383.99 514.657L405.152 498.052C406.226 497.209 407.734 497.191 408.827 498.008C409.921 498.826 410.329 500.276 409.821 501.543L399.193 528.077M383.99 514.657L399.193 528.077M399.193 528.077C399.182 528.104 399.17 528.132 399.159 528.159L380.398 571.283M380.398 571.283L382.346 572.857C383.128 573.488 383.545 574.468 383.456 575.468C383.367 576.469 382.784 577.36 381.903 577.844L369.827 584.477C369.381 584.722 368.88 584.851 368.372 584.851H361.125M380.398 571.283L368.975 564.83M347.841 552.889L368.975 564.83M368.975 564.83L361.125 584.851" stroke="black" stroke-width="5" stroke-linecap="round" stroke-linejoin="round"/>
<path d="M132.636 217.501L101.403 252.816C101.403 252.816 96.7755 254.001 90.4132 251.631C84.0509 249.262 81.5593 248.963 81.1589 238.006C81.1589 232.081 84.0509 223.195 88.5323 216.103C88.5323 216.103 96.551 201.651 108.579 200.718C120.607 199.786 132.636 217.501 132.636 217.501Z" fill="#5C3F3F"/>
<path d="M202.217 189.382L177.131 197.703C177.131 197.703 171.235 195.809 165.333 189.382C159.432 182.955 153.811 162.69 159.404 151.955C162.673 146.292 168.14 141.933 177.131 138.086C177.131 138.086 188.074 131.109 202.217 138.086C216.36 145.063 202.217 189.382 202.217 189.382Z" fill="#5C3F3F"/>
<path d="M383.368 202.511C395.865 204.715 404.996 215.895 410.064 231.011C415.166 246.232 416.408 266.062 412.727 286.935C409.047 307.808 401.098 326.017 391.097 338.575C381.165 351.047 368.761 358.43 356.264 356.227C343.767 354.023 334.636 342.842 329.568 327.725C324.466 312.505 323.224 292.675 326.905 271.802C330.585 250.929 338.534 232.72 348.534 220.162C358.467 207.691 370.871 200.308 383.368 202.511Z" fill="#5C3F3F" stroke="black" stroke-width="5"/>
<path d="M290.556 408.324L283.879 419.772L268.097 427.003L270.222 408.324H290.556Z" fill="#5C3F3F"/>
<path d="M375.5 401.965L355.5 395.5V421.5L373.712 417.983L375.5 401.965Z" fill="#D0A38F"/>
<path d="M387.673 415.555L392.528 408.324L385.852 405.311L375.5 401.965L373.712 417.983L387.673 415.555Z" fill="#5C3F3F"/>
<path d="M353.682 257.079L370.07 271.54M384.031 269.13L398.598 254.066M376.14 278.169L373.712 339.028M249.888 408.324H270.222M252.316 434.234L268.097 427.003M270.222 408.324H290.556L283.879 419.772L268.097 427.003M270.222 408.324L268.097 427.003M375.5 401.965L385.852 405.311L392.528 408.324L387.673 415.555L373.712 417.983M375.5 401.965L355.5 395.5V421.5L373.712 417.983M375.5 401.965L373.712 417.983" stroke="black" stroke-width="5" stroke-linecap="round" stroke-linejoin="round"/>
<path d="M257.514 271.225L185.065 277.898" stroke="black" stroke-width="8" stroke-linecap="round" stroke-linejoin="round"/>
</g>
<mask id="path-9-inside-1_45_21" fill="white">
<path d="M230.5 115C357.802 115 461 191.559 461 286C461 380.441 357.802 457 230.5 457C103.198 457 0 380.441 0 286C0 191.559 103.198 115 230.5 115ZM199.058 129.491C195.291 127.678 190.423 127.208 185.443 127.662C180.418 128.121 175.035 129.541 170.081 131.76C160.435 136.081 151.442 143.944 151.351 154.559C150.091 165.022 154.172 177.017 159.154 186.849C161.684 191.84 164.501 196.384 167.115 200.039C167.719 200.883 168.319 201.687 168.905 202.444C166.637 203.336 164.355 204.275 162.06 205.265L160.269 206.021C151.158 209.925 144.144 213.803 138.84 217.079C138.678 216.511 138.48 215.869 138.235 215.171C137.303 212.513 135.7 208.987 133.008 205.563C127.519 198.582 117.751 192.352 101.021 194.195L100.885 194.211L100.751 194.24C88.3304 197.01 80.9425 204.456 77.3838 213.285C73.8732 221.995 74.1298 231.919 76.5977 239.88L76.6797 240.145L76.8174 240.384C79.9584 245.855 82.9527 249.087 86.8125 251.432C89.7894 253.24 93.2467 254.481 97.376 255.91C96.8692 256.919 96.3898 257.937 95.9404 258.966C90.5455 271.322 89.2723 284.961 88.4707 301.147C87.6363 317.998 92.8808 330.783 101.611 340.831C110.269 350.795 122.26 357.961 134.771 363.865C156.927 374.32 249.621 406.796 355.053 363.92C365.565 359.645 377.671 350.546 387.154 339.025C396.632 327.512 403.744 313.264 403.744 298.613C403.744 282.433 402.775 268.409 395.573 254.868C388.374 241.332 375.131 228.606 351.311 214.469C351.258 214.437 351.203 214.408 351.148 214.381L350.981 214.305L348.409 213.236C336.065 208.036 331.022 204.83 313.405 198.93L313.205 198.872L312.713 198.744C303.996 196.391 264.087 181.3 210.098 190.795C210.23 190.035 210.371 189.22 210.51 188.355C211.372 182.996 212.305 175.718 212.57 168.096C212.835 160.502 212.443 152.417 210.573 145.508C208.713 138.632 205.259 132.477 199.058 129.491Z"/>
</mask>
<path d="M230.5 115C357.802 115 461 191.559 461 286C461 380.441 357.802 457 230.5 457C103.198 457 0 380.441 0 286C0 191.559 103.198 115 230.5 115ZM199.058 129.491C195.291 127.678 190.423 127.208 185.443 127.662C180.418 128.121 175.035 129.541 170.081 131.76C160.435 136.081 151.442 143.944 151.351 154.559C150.091 165.022 154.172 177.017 159.154 186.849C161.684 191.84 164.501 196.384 167.115 200.039C167.719 200.883 168.319 201.687 168.905 202.444C166.637 203.336 164.355 204.275 162.06 205.265L160.269 206.021C151.158 209.925 144.144 213.803 138.84 217.079C138.678 216.511 138.48 215.869 138.235 215.171C137.303 212.513 135.7 208.987 133.008 205.563C127.519 198.582 117.751 192.352 101.021 194.195L100.885 194.211L100.751 194.24C88.3304 197.01 80.9425 204.456 77.3838 213.285C73.8732 221.995 74.1298 231.919 76.5977 239.88L76.6797 240.145L76.8174 240.384C79.9584 245.855 82.9527 249.087 86.8125 251.432C89.7894 253.24 93.2467 254.481 97.376 255.91C96.8692 256.919 96.3898 257.937 95.9404 258.966C90.5455 271.322 89.2723 284.961 88.4707 301.147C87.6363 317.998 92.8808 330.783 101.611 340.831C110.269 350.795 122.26 357.961 134.771 363.865C156.927 374.32 249.621 406.796 355.053 363.92C365.565 359.645 377.671 350.546 387.154 339.025C396.632 327.512 403.744 313.264 403.744 298.613C403.744 282.433 402.775 268.409 395.573 254.868C388.374 241.332 375.131 228.606 351.311 214.469C351.258 214.437 351.203 214.408 351.148 214.381L350.981 214.305L348.409 213.236C336.065 208.036 331.022 204.83 313.405 198.93L313.205 198.872L312.713 198.744C303.996 196.391 264.087 181.3 210.098 190.795C210.23 190.035 210.371 189.22 210.51 188.355C211.372 182.996 212.305 175.718 212.57 168.096C212.835 160.502 212.443 152.417 210.573 145.508C208.713 138.632 205.259 132.477 199.058 129.491Z" fill="#F7A730"/>
<path d="M230.5 115V110V115ZM230.5 457V462V457ZM199.058 129.491L201.227 124.986L201.227 124.986L199.058 129.491ZM185.443 127.662L184.989 122.683L184.989 122.683L185.443 127.662ZM170.081 131.76L168.037 127.197L168.037 127.197L170.081 131.76ZM151.351 154.559L156.315 155.156L156.348 154.88L156.35 154.602L151.351 154.559ZM159.154 186.849L154.694 189.109L154.694 189.109L159.154 186.849ZM167.115 200.039L163.048 202.948L163.048 202.948L167.115 200.039ZM168.905 202.444L170.734 207.098L176.944 204.657L172.858 199.382L168.905 202.444ZM162.06 205.265L164.004 209.871L164.022 209.864L164.04 209.856L162.06 205.265ZM160.269 206.021L158.324 201.414L158.312 201.419L158.299 201.425L160.269 206.021ZM138.84 217.079L134.03 218.447L135.84 224.809L141.467 221.333L138.84 217.079ZM138.235 215.171L142.954 213.516V213.516L138.235 215.171ZM133.008 205.563L136.939 202.473L136.939 202.473L133.008 205.563ZM101.021 194.195L100.474 189.225L100.464 189.227L100.454 189.228L101.021 194.195ZM100.885 194.211L100.317 189.243L100.064 189.272L99.8152 189.327L100.885 194.211ZM100.751 194.24L99.6814 189.356L99.672 189.358L99.6626 189.36L100.751 194.24ZM77.3838 213.285L72.7463 211.416L72.7463 211.416L77.3838 213.285ZM76.5977 239.88L81.3735 238.4L81.3735 238.399L76.5977 239.88ZM76.6797 240.145L71.9039 241.625L72.0686 242.156L72.3461 242.639L76.6797 240.145ZM76.8174 240.384L81.1536 237.894L81.151 237.89L76.8174 240.384ZM86.8125 251.432L84.2165 255.705L86.8125 251.432ZM97.376 255.91L101.844 258.154L104.406 253.053L99.0118 251.185L97.376 255.91ZM95.9404 258.966L91.3582 256.965V256.965L95.9404 258.966ZM88.4707 301.147L83.4768 300.9V300.9L88.4707 301.147ZM101.611 340.831L97.837 344.11L97.837 344.11L101.611 340.831ZM134.771 363.865L132.638 368.387L134.771 363.865ZM355.053 363.92L353.169 359.288L355.053 363.92ZM387.154 339.025L391.015 342.203L387.154 339.025ZM403.744 298.613L408.744 298.613V298.613H403.744ZM395.573 254.868L399.988 252.52V252.52L395.573 254.868ZM351.311 214.469L353.862 210.169V210.169L351.311 214.469ZM351.148 214.381L353.377 209.905L353.301 209.867L353.223 209.832L351.148 214.381ZM350.981 214.305L353.056 209.756L352.978 209.72L352.899 209.687L350.981 214.305ZM348.409 213.236L346.468 217.844L346.48 217.849L346.491 217.854L348.409 213.236ZM313.405 198.93L314.993 194.189L314.891 194.154L314.788 194.125L313.405 198.93ZM313.205 198.872L314.588 194.067L314.526 194.049L314.463 194.033L313.205 198.872ZM312.713 198.744L311.41 203.571L311.432 203.577L311.455 203.583L312.713 198.744ZM210.098 190.795L205.172 189.935L203.947 196.953L210.964 195.719L210.098 190.795ZM210.51 188.355L215.446 189.15V189.15L210.51 188.355ZM212.57 168.096L217.567 168.27V168.27L212.57 168.096ZM210.573 145.508L215.4 144.202L215.4 144.202L210.573 145.508ZM230.5 115V120C293.186 120 349.742 138.856 390.509 169.1C431.277 199.345 456 240.73 456 286H461H466C466 236.829 439.124 192.715 396.467 161.069C353.81 129.423 295.115 110 230.5 110V115ZM461 286H456C456 331.27 431.277 372.655 390.509 402.9C349.742 433.144 293.186 452 230.5 452V457V462C295.115 462 353.81 442.577 396.467 410.931C439.124 379.285 466 335.171 466 286H461ZM230.5 457V452C167.814 452 111.258 433.144 70.491 402.9C29.7229 372.655 5 331.27 5 286H0H-5C-5 335.171 21.8763 379.285 64.5329 410.931C107.19 442.577 165.885 462 230.5 462V457ZM0 286H5C5 240.73 29.7229 199.345 70.491 169.1C111.258 138.856 167.814 120 230.5 120V115V110C165.885 110 107.19 129.423 64.5329 161.069C21.8763 192.715 -5 236.829 -5 286H0ZM199.058 129.491L201.227 124.986C196.335 122.631 190.453 122.184 184.989 122.683L185.443 127.662L185.898 132.641C190.393 132.231 194.246 132.724 196.889 133.996L199.058 129.491ZM185.443 127.662L184.989 122.683C179.389 123.194 173.47 124.763 168.037 127.197L170.081 131.76L172.125 136.323C176.6 134.318 181.447 133.047 185.898 132.641L185.443 127.662ZM170.081 131.76L168.037 127.197C157.866 131.753 146.468 140.865 146.351 154.516L151.351 154.559L156.35 154.602C156.416 147.023 163.003 140.409 172.125 136.323L170.081 131.76ZM151.351 154.559L146.386 153.961C144.947 165.924 149.581 179.018 154.694 189.109L159.154 186.849L163.614 184.589C158.764 175.017 155.236 164.121 156.315 155.156L151.351 154.559ZM159.154 186.849L154.694 189.109C157.341 194.333 160.292 199.093 163.048 202.948L167.115 200.039L171.182 197.131C168.711 193.675 166.026 189.347 163.614 184.588L159.154 186.849ZM167.115 200.039L163.048 202.948C163.69 203.844 164.327 204.699 164.953 205.506L168.905 202.444L172.858 199.382C172.31 198.675 171.748 197.922 171.182 197.131L167.115 200.039ZM168.905 202.444L167.076 197.791C164.759 198.702 162.426 199.662 160.08 200.673L162.06 205.265L164.04 209.856C166.284 208.888 168.516 207.969 170.734 207.098L168.905 202.444ZM162.06 205.265L160.115 200.658L158.324 201.414L160.269 206.021L162.213 210.627L164.004 209.871L162.06 205.265ZM160.269 206.021L158.299 201.425C148.935 205.438 141.701 209.435 136.212 212.825L138.84 217.079L141.467 221.333C146.587 218.171 153.382 214.411 162.238 210.616L160.269 206.021ZM138.84 217.079L143.649 215.712C143.464 215.061 143.236 214.322 142.954 213.516L138.235 215.171L133.517 216.825C133.724 217.415 133.892 217.96 134.03 218.447L138.84 217.079ZM138.235 215.171L142.954 213.516C141.892 210.49 140.056 206.439 136.939 202.473L133.008 205.563L129.077 208.654C131.343 211.536 132.714 214.536 133.517 216.825L138.235 215.171ZM133.008 205.563L136.939 202.473C130.389 194.143 118.931 187.191 100.474 189.225L101.021 194.195L101.569 199.165C116.57 197.512 124.65 203.022 129.077 208.654L133.008 205.563ZM101.021 194.195L100.454 189.228L100.317 189.243L100.885 194.211L101.452 199.179L101.589 199.163L101.021 194.195ZM100.885 194.211L99.8152 189.327L99.6814 189.356L100.751 194.24L101.821 199.125L101.954 199.095L100.885 194.211ZM100.751 194.24L99.6626 189.36C85.5808 192.501 76.8991 201.113 72.7463 211.416L77.3838 213.285L82.0213 215.154C84.9859 207.799 91.08 201.52 101.839 199.12L100.751 194.24ZM77.3838 213.285L72.7463 211.416C68.7373 221.363 69.0714 232.488 71.8219 241.36L76.5977 239.88L81.3735 238.399C79.1881 231.35 79.009 222.628 82.0213 215.154L77.3838 213.285ZM76.5977 239.88L71.8218 241.36L71.9039 241.625L76.6797 240.145L81.4555 238.664L81.3735 238.4L76.5977 239.88ZM76.6797 240.145L72.3461 242.639L72.4838 242.878L76.8174 240.384L81.151 237.89L81.0133 237.651L76.6797 240.145ZM76.8174 240.384L72.4812 242.873C75.9147 248.854 79.444 252.806 84.2165 255.705L86.8125 251.432L89.4085 247.158C86.4614 245.368 84.0021 242.856 81.1536 237.894L76.8174 240.384ZM86.8125 251.432L84.2165 255.705C87.7227 257.835 91.6883 259.232 95.7402 260.635L97.376 255.91L99.0118 251.185C94.8051 249.729 91.8561 248.645 89.4085 247.158L86.8125 251.432ZM97.376 255.91L92.9078 253.666C92.3638 254.75 91.8458 255.848 91.3582 256.965L95.9404 258.966L100.523 260.967C100.934 260.025 101.375 259.089 101.844 258.154L97.376 255.91ZM95.9404 258.966L91.3582 256.965C85.5592 270.247 84.278 284.722 83.4768 300.9L88.4707 301.147L93.4646 301.395C94.2666 285.2 95.5319 272.397 100.523 260.967L95.9404 258.966ZM88.4707 301.147L83.4768 300.9C82.5771 319.068 88.2794 333.111 97.837 344.11L101.611 340.831L105.386 337.552C97.4821 328.455 92.6955 316.927 93.4646 301.395L88.4707 301.147ZM101.611 340.831L97.837 344.11C107.174 354.857 119.91 362.381 132.638 368.387L134.771 363.865L136.905 359.343C124.609 353.541 113.363 346.732 105.386 337.552L101.611 340.831ZM134.771 363.865L132.638 368.387C155.513 379.181 249.74 412.145 356.936 368.552L355.053 363.92L353.169 359.288C249.502 401.447 158.341 369.458 136.905 359.343L134.771 363.865ZM355.053 363.92L356.936 368.552C368.348 363.911 381.101 354.247 391.015 342.203L387.154 339.025L383.294 335.848C374.241 346.845 362.781 355.379 353.169 359.288L355.053 363.92ZM387.154 339.025L391.015 342.203C400.911 330.181 408.744 314.841 408.744 298.613L403.744 298.613L398.744 298.613C398.744 311.688 392.352 324.843 383.294 335.848L387.154 339.025ZM403.744 298.613H408.744C408.744 282.32 407.807 267.221 399.988 252.52L395.573 254.868L391.159 257.216C397.744 269.597 398.744 282.546 398.744 298.613H403.744ZM395.573 254.868L399.988 252.52C392.176 237.834 378.054 224.526 353.862 210.169L351.311 214.469L348.759 218.769C372.208 232.685 384.571 244.831 391.159 257.216L395.573 254.868ZM351.311 214.469L353.862 210.169C353.688 210.065 353.523 209.978 353.377 209.905L351.148 214.381L348.92 218.857C348.883 218.839 348.828 218.81 348.759 218.769L351.311 214.469ZM351.148 214.381L353.223 209.832L353.056 209.756L350.981 214.305L348.906 218.854L349.073 218.93L351.148 214.381ZM350.981 214.305L352.899 209.687L350.327 208.619L348.409 213.236L346.491 217.854L349.064 218.922L350.981 214.305ZM348.409 213.236L350.35 208.629C338.419 203.602 332.834 200.164 314.993 194.189L313.405 198.93L311.817 203.671C329.211 209.496 333.71 212.469 346.468 217.844L348.409 213.236ZM313.405 198.93L314.788 194.125L314.588 194.067L313.205 198.872L311.822 203.677L312.022 203.735L313.405 198.93ZM313.205 198.872L314.463 194.033L313.971 193.905L312.713 198.744L311.455 203.583L311.947 203.711L313.205 198.872ZM312.713 198.744L314.016 193.917C305.549 191.631 264.516 176.148 209.232 185.87L210.098 190.795L210.964 195.719C263.658 186.453 302.443 201.151 311.41 203.571L312.713 198.744ZM210.098 190.795L215.023 191.655C215.157 190.888 215.302 190.047 215.446 189.15L210.51 188.355L205.573 187.561C205.439 188.393 205.304 189.182 205.172 189.935L210.098 190.795ZM210.51 188.355L215.446 189.15C216.329 183.664 217.292 176.167 217.567 168.27L212.57 168.096L207.573 167.922C207.318 175.269 206.416 182.327 205.573 187.561L210.51 188.355ZM212.57 168.096L217.567 168.27C217.839 160.457 217.457 151.804 215.4 144.202L210.573 145.508L205.747 146.814C207.429 153.03 207.83 160.547 207.573 167.922L212.57 168.096ZM210.573 145.508L215.4 144.202C213.37 136.702 209.32 128.883 201.227 124.986L199.058 129.491L196.889 133.996C201.198 136.071 204.055 140.561 205.747 146.814L210.573 145.508Z" fill="black" mask="url(#path-9-inside-1_45_21)"/>
<path d="M206 120.137C225 102.137 261 97 289 102.137C315.631 107.023 347.932 143.708 351.657 145.196C351.771 145.176 351.885 145.156 352 145.137C351.964 145.255 351.848 145.272 351.657 145.196C261.434 160.598 235.463 145.105 206 120.137Z" fill="#32DE77"/>
<path d="M206 120.137C225 102.137 261 97 289 102.137C317 107.274 351.267 147.563 352 145.137C261.5 160.637 235.5 145.137 206 120.137ZM206 120.137C203.477 117.998 200.5 84.863 190 70" stroke="black" stroke-width="8" stroke-linecap="round" stroke-linejoin="round"/>
<defs>
<filter id="filter0_d_45_21" x="61.4998" y="121.921" width="379.851" height="495.43" filterUnits="userSpaceOnUse" color-interpolation-filters="sRGB">
<feFlood flood-opacity="0" result="BackgroundImageFix"/>
<feColorMatrix in="SourceAlpha" type="matrix" values="0 0 0 0 0 0 0 0 0 0 0 0 0 0 0 0 0 0 127 0" result="hardAlpha"/>
<feOffset dx="20" dy="26"/>
<feGaussianBlur stdDeviation="2"/>
<feComposite in2="hardAlpha" operator="out"/>
<feColorMatrix type="matrix" values="0 0 0 0 0 0 0 0 0 0 0 0 0 0 0 0 0 0 0.25 0"/>
<feBlend mode="normal" in2="BackgroundImageFix" result="effect1_dropShadow_45_21"/>
<feBlend mode="normal" in="SourceGraphic" in2="effect1_dropShadow_45_21" result="shape"/>
</filter>
</defs>
</svg>
