<svg width="381" height="497" viewBox="0 0 381 497" fill="none" xmlns="http://www.w3.org/2000/svg">
<g filter="url(#filter0_d_50_2)">
<path d="M344.152 377.052L322.99 393.657L338.193 407.078L348.822 380.543C349.329 379.277 348.921 377.826 347.827 377.009C346.734 376.191 345.226 376.209 344.152 377.052Z" fill="#5C3F3F"/>
<path d="M321.346 451.857L319.398 450.284L307.975 443.83L300.125 463.851H307.372C307.88 463.851 308.381 463.723 308.827 463.478L320.903 456.844C321.784 456.36 322.367 455.469 322.456 454.469C322.545 453.468 322.129 452.489 321.346 451.857Z" fill="#5C3F3F"/>
<path d="M142.552 4.15491C134.859 3.25768 128.648 3.17244 122.484 3.96057C115.88 4.45359 109.449 5.84314 101.687 9.30917C93.0677 13.6749 89.1462 24.5062 88.7608 25.0735C88.3753 25.6408 85.7916 38.0311 87.6179 48.27C87.6179 48.27 87.6354 48.4115 87.658 48.4997C87.6807 48.5878 87.7335 48.72 87.7335 48.72C87.7335 48.72 96.5618 71.1141 102.719 79.4359L73.0111 85.139L68.1131 79.4983C63.9072 74.507 60.2313 70.7353 56.1564 68.6633C51.9152 66.5067 47.566 66.3365 42.3929 67.6715C36.4449 68.1101 31.9647 69.8906 27.9595 73.2498C24.05 76.5289 20.7055 81.2303 16.819 87.0825L16.6609 87.3216L16.5501 87.5866C10.7953 101.349 10.4788 101.626 10.4788 114.893L11.6865 122.733L12.9812 126.822C16.4926 134.259 21.564 138.59 28.5221 141.344C28.3305 141.95 28.1224 142.635 27.8994 143.393C27.1239 146.029 26.1471 149.623 25.0335 154.036C22.8052 162.865 20.0152 175.026 17.1775 189.442C11.5041 218.265 5.62431 256.187 3.67348 294.598C1.72551 332.954 3.6788 372.064 13.8457 403.127C24.0334 434.254 42.6848 457.824 74.3285 463.798C74.5134 463.833 74.7018 463.851 74.8899 463.851H300.125L307.975 443.83L319.398 450.284L338.159 407.159C338.17 407.132 338.182 407.105 338.193 407.078L322.99 393.657L301.951 401.785L294.084 349.029L292.896 263.053C317.691 237.915 328.97 198.429 333.66 164.36C336.045 147.041 336.749 130.956 336.612 118.575C336.544 112.384 336.266 107.094 335.877 103.02C335.502 99.1015 334.998 95.9316 334.329 94.2626C330.027 83.5209 322.125 79.4771 317.176 77.006C316.583 76.7099 315.707 76.4359 314.833 76.1897C313.872 75.9193 312.635 75.6086 311.155 75.2675C308.191 74.5841 304.169 73.7607 299.266 72.8776C289.457 71.1109 276.061 69.0944 260.437 67.4725C230.47 64.3618 192.178 62.6917 155.223 67.0838C160.783 48.5742 163.378 35.3771 162.297 25.7578C161.699 20.4413 159.971 16.0842 156.931 12.5306C153.923 9.01487 149.819 6.50508 144.842 4.533L144.488 4.39284L144.111 4.34454L142.552 4.15491Z" fill="#D0A38F"/>
<path d="M322.99 393.657L301.951 401.785L294.084 349.029L292.896 263.053C317.691 237.915 328.97 198.429 333.66 164.36C336.045 147.041 336.749 130.956 336.612 118.575C336.544 112.384 336.266 107.094 335.877 103.02C335.502 99.1015 334.998 95.9316 334.329 94.2626C330.027 83.5208 322.125 79.4771 317.176 77.006C316.583 76.7099 315.707 76.4359 314.833 76.1897C313.872 75.9193 312.635 75.6086 311.155 75.2675C308.191 74.5841 304.169 73.7607 299.266 72.8776C289.457 71.1109 276.061 69.0944 260.437 67.4725C230.47 64.3618 192.178 62.6917 155.223 67.0838C160.783 48.5742 163.378 35.3771 162.297 25.7578C161.699 20.4413 159.971 16.0842 156.931 12.5306C153.923 9.01487 149.819 6.50508 144.842 4.533L144.488 4.39284L144.111 4.34454L142.552 4.15491C134.859 3.25768 128.648 3.17244 122.484 3.96057C115.88 4.45359 109.449 5.84314 101.687 9.30917C93.0677 13.6749 89.1462 24.5062 88.7608 25.0735C88.3753 25.6408 85.7916 38.0311 87.6179 48.27C87.6179 48.27 87.6354 48.4115 87.658 48.4997C87.6807 48.5878 87.7335 48.72 87.7335 48.72C87.7335 48.72 96.5618 71.1141 102.719 79.4359L73.0111 85.139L68.1131 79.4983C63.9072 74.507 60.2313 70.7353 56.1564 68.6633C51.9152 66.5067 47.566 66.3365 42.3929 67.6715C36.4448 68.1101 31.9647 69.8906 27.9595 73.2498C24.05 76.5289 20.7055 81.2303 16.819 87.0825L16.6609 87.3216L16.5501 87.5866C10.7953 101.349 10.4788 101.626 10.4788 114.893L11.6865 122.733L12.9812 126.822C16.4926 134.259 21.564 138.59 28.5221 141.344C28.3305 141.95 28.1224 142.635 27.8994 143.393C27.1239 146.029 26.1471 149.623 25.0335 154.036C22.8052 162.865 20.0152 175.026 17.1775 189.442C11.5041 218.265 5.62431 256.187 3.67348 294.598C1.72551 332.954 3.6788 372.064 13.8457 403.127C24.0334 434.254 42.6848 457.824 74.3285 463.798C74.5134 463.833 74.7018 463.851 74.8899 463.851H300.125M322.99 393.657L344.152 377.052C345.226 376.209 346.734 376.191 347.827 377.009C348.921 377.826 349.329 379.277 348.822 380.543L338.193 407.078M322.99 393.657L338.193 407.078M338.193 407.078C338.182 407.105 338.17 407.132 338.159 407.159L319.398 450.284M319.398 450.284L321.346 451.857C322.129 452.489 322.545 453.468 322.456 454.469C322.367 455.469 321.784 456.36 320.903 456.844L308.827 463.478C308.381 463.723 307.88 463.851 307.372 463.851H300.125M319.398 450.284L307.975 443.83M286.841 431.889L307.975 443.83M307.975 443.83L300.125 463.851" stroke="black" stroke-width="5" stroke-linecap="round" stroke-linejoin="round"/>
<path d="M71.6357 96.5018L40.4027 131.817C40.4027 131.817 35.7756 133.002 29.4133 130.632C23.051 128.262 20.5595 127.964 20.1591 117.006C20.1591 111.082 23.051 102.195 27.5324 95.1032C27.5324 95.1032 35.5512 80.6511 47.5793 79.7187C59.6075 78.7863 71.6357 96.5018 71.6357 96.5018Z" fill="#5C3F3F"/>
<path d="M141.217 68.3828L116.131 76.7039C116.131 76.7039 110.235 74.8095 104.333 68.3825C98.4324 61.9554 92.8111 41.6907 98.4041 30.9554C101.673 25.2929 107.14 20.9335 116.131 17.0863C116.131 17.0863 127.074 10.1091 141.217 17.0863C155.36 24.0636 141.217 68.3828 141.217 68.3828Z" fill="#5C3F3F"/>
<path d="M322.368 81.5116C334.865 83.7151 343.996 94.8954 349.064 110.012C354.166 125.232 355.408 145.062 351.727 165.935C348.047 186.809 340.098 205.018 330.097 217.575C320.165 230.047 307.761 237.431 295.264 235.227C282.767 233.024 273.636 221.843 268.568 206.726C263.466 191.505 262.224 171.676 265.905 150.802C269.585 129.929 277.534 111.72 287.534 99.1626C297.467 86.691 309.871 79.308 322.368 81.5116Z" fill="#5C3F3F" stroke="black" stroke-width="5"/>
<path d="M229.556 287.324L222.879 298.773L207.097 306.004L209.222 287.324H229.556Z" fill="#5C3F3F"/>
<path d="M314.5 280.965L294.5 274.5V300.5L312.712 296.984L314.5 280.965Z" fill="#D0A38F"/>
<path d="M326.673 294.555L331.528 287.324L324.852 284.311L314.5 280.965L312.712 296.984L326.673 294.555Z" fill="#5C3F3F"/>
<path d="M292.682 136.079L309.07 150.541M323.031 148.131L337.598 133.066M315.14 157.169L312.712 218.029M188.888 287.324H209.222M191.316 313.235L207.097 306.004M209.222 287.324H229.556L222.879 298.773L207.097 306.004M209.222 287.324L207.097 306.004M314.5 280.965L324.852 284.311L331.528 287.324L326.673 294.555L312.712 296.984M314.5 280.965L294.5 274.5V300.5L312.712 296.984M314.5 280.965L312.712 296.984" stroke="black" stroke-width="5" stroke-linecap="round" stroke-linejoin="round"/>
<path d="M196.514 150.225L124.065 156.898" stroke="black" stroke-width="8" stroke-linecap="round" stroke-linejoin="round"/>
</g>
<path d="M263.425 274.915C277.354 266.873 291.69 262.83 303.535 262.689C315.47 262.547 324.286 266.328 328.246 273.187C332.206 280.046 331.073 289.571 324.982 299.836C318.937 310.024 308.268 320.418 294.34 328.459C280.411 336.501 266.075 340.544 254.23 340.685C242.295 340.827 233.479 337.046 229.519 330.187C225.559 323.328 226.692 313.803 232.783 303.537C238.828 293.35 249.497 282.956 263.425 274.915Z" fill="#7F7B6B" stroke="black" stroke-width="5" stroke-linejoin="round"/>
<path d="M260.425 265.915C274.354 257.874 288.69 253.83 300.535 253.689C312.47 253.547 321.286 257.328 325.246 264.187C329.206 271.047 328.073 280.572 321.982 290.837C315.937 301.024 305.268 311.418 291.34 319.46C277.411 327.501 263.075 331.544 251.23 331.686C239.295 331.828 230.479 328.047 226.519 321.187C222.559 314.328 223.692 304.803 229.783 294.538C235.828 284.35 246.497 273.957 260.425 265.915Z" fill="#FFD814" stroke="black" stroke-width="5" stroke-linejoin="round"/>
<path d="M266.713 272.702L292.767 306.886" stroke="black" stroke-width="5" stroke-linecap="round" stroke-linejoin="round"/>
<path d="M289.074 271.766C262.96 281.386 256.97 286.928 254.657 296.959C256.785 302.314 268.359 298.805 268.359 298.805C268.359 298.805 282.868 289.237 291.458 285.469C291.458 285.469 295.604 283.075 302.822 286.003C310.041 288.931 275.08 310.446 275.08 310.446" stroke="black" stroke-width="5" stroke-linecap="round" stroke-linejoin="round"/>
<defs>
<filter id="filter0_d_50_2" x="0.5" y="0.921387" width="379.851" height="495.43" filterUnits="userSpaceOnUse" color-interpolation-filters="sRGB">
<feFlood flood-opacity="0" result="BackgroundImageFix"/>
<feColorMatrix in="SourceAlpha" type="matrix" values="0 0 0 0 0 0 0 0 0 0 0 0 0 0 0 0 0 0 127 0" result="hardAlpha"/>
<feOffset dx="20" dy="26"/>
<feGaussianBlur stdDeviation="2"/>
<feComposite in2="hardAlpha" operator="out"/>
<feColorMatrix type="matrix" values="0 0 0 0 0 0 0 0 0 0 0 0 0 0 0 0 0 0 0.25 0"/>
<feBlend mode="normal" in2="BackgroundImageFix" result="effect1_dropShadow_50_2"/>
<feBlend mode="normal" in="SourceGraphic" in2="effect1_dropShadow_50_2" result="shape"/>
</filter>
</defs>
</svg>
