<svg width="381" height="497" viewBox="0 0 381 497" fill="none" xmlns="http://www.w3.org/2000/svg">
<g filter="url(#filter0_d_45_19)">
<path d="M344.152 377.052L322.99 393.657L338.193 407.078L348.821 380.543C349.329 379.277 348.921 377.826 347.827 377.009C346.734 376.191 345.226 376.209 344.152 377.052Z" fill="#5C3F3F"/>
<path d="M321.346 451.857L319.398 450.284L307.975 443.83L300.125 463.851H307.372C307.88 463.851 308.381 463.723 308.827 463.478L320.903 456.844C321.784 456.36 322.367 455.469 322.456 454.469C322.545 453.468 322.128 452.489 321.346 451.857Z" fill="#5C3F3F"/>
<path d="M142.552 4.15491C134.859 3.25768 128.648 3.17244 122.484 3.96057C115.879 4.45359 109.449 5.84314 101.687 9.30917C93.0675 13.6749 89.1461 24.5062 88.7606 25.0735C88.3752 25.6408 85.7915 38.0311 87.6178 48.27C87.6178 48.27 87.6352 48.4115 87.6579 48.4997C87.6805 48.5878 87.7334 48.72 87.7334 48.72C87.7334 48.72 96.5616 71.1141 102.719 79.4359L73.011 85.139L68.113 79.4983C63.9071 74.507 60.2312 70.7353 56.1563 68.6633C51.9151 66.5067 47.5659 66.3365 42.3928 67.6715C36.4447 68.1101 31.9646 69.8906 27.9594 73.2498C24.0499 76.5289 20.7054 81.2303 16.8189 87.0825L16.6608 87.3216L16.55 87.5866C10.7952 101.349 10.4787 101.626 10.4787 114.893L11.6864 122.733L12.9811 126.822C16.4925 134.259 21.5639 138.59 28.522 141.344C28.3304 141.95 28.1223 142.635 27.8993 143.393C27.1237 146.029 26.147 149.623 25.0333 154.036C22.8051 162.865 20.0151 175.026 17.1774 189.442C11.504 218.265 5.62419 256.187 3.67336 294.598C1.72539 332.954 3.67868 372.064 13.8456 403.127C24.0333 434.254 42.6847 457.824 74.3284 463.798C74.5133 463.833 74.7017 463.851 74.8898 463.851H300.125L307.975 443.83L319.398 450.284L338.159 407.159C338.17 407.132 338.182 407.105 338.193 407.078L322.99 393.657L301.951 401.785L294.083 349.029L292.896 263.053C317.691 237.915 328.97 198.429 333.66 164.36C336.044 147.041 336.749 130.956 336.612 118.575C336.544 112.384 336.265 107.094 335.876 103.02C335.502 99.1015 334.997 95.9316 334.329 94.2626C330.027 83.5209 322.125 79.4771 317.176 77.006C316.583 76.7099 315.707 76.4359 314.832 76.1897C313.872 75.9193 312.635 75.6086 311.155 75.2675C308.19 74.5841 304.169 73.7607 299.266 72.8776C289.457 71.1109 276.061 69.0944 260.437 67.4725C230.47 64.3618 192.178 62.6917 155.223 67.0838C160.782 48.5742 163.378 35.3771 162.297 25.7578C161.699 20.4413 159.971 16.0842 156.931 12.5306C153.923 9.01487 149.819 6.50508 144.842 4.533L144.488 4.39284L144.111 4.34454L142.552 4.15491Z" fill="#D0A38F"/>
<path d="M322.99 393.657L301.951 401.785L294.083 349.029L292.896 263.053C317.691 237.915 328.97 198.429 333.66 164.36C336.044 147.041 336.749 130.956 336.612 118.575C336.544 112.384 336.265 107.094 335.876 103.02C335.502 99.1015 334.997 95.9316 334.329 94.2626C330.027 83.5208 322.125 79.4771 317.176 77.006C316.583 76.7099 315.707 76.4359 314.833 76.1897C313.872 75.9193 312.635 75.6086 311.155 75.2675C308.19 74.5841 304.169 73.7607 299.266 72.8776C289.457 71.1109 276.061 69.0944 260.437 67.4725C230.47 64.3618 192.178 62.6917 155.223 67.0838C160.782 48.5742 163.378 35.3771 162.297 25.7578C161.699 20.4413 159.971 16.0842 156.931 12.5306C153.923 9.01487 149.819 6.50508 144.842 4.533L144.488 4.39284L144.111 4.34454L142.552 4.15491C134.859 3.25768 128.648 3.17244 122.484 3.96057C115.879 4.45359 109.449 5.84314 101.687 9.30917C93.0675 13.6749 89.1461 24.5062 88.7606 25.0735C88.3752 25.6408 85.7915 38.0311 87.6178 48.27C87.6178 48.27 87.6352 48.4115 87.6579 48.4997C87.6805 48.5878 87.7334 48.72 87.7334 48.72C87.7334 48.72 96.5616 71.1141 102.719 79.4359L73.011 85.139L68.113 79.4983C63.9071 74.507 60.2312 70.7353 56.1563 68.6633C51.9151 66.5067 47.5659 66.3365 42.3928 67.6715C36.4447 68.1101 31.9646 69.8906 27.9594 73.2498C24.0499 76.5289 20.7054 81.2303 16.8189 87.0825L16.6608 87.3216L16.55 87.5866C10.7952 101.349 10.4787 101.626 10.4787 114.893L11.6864 122.733L12.9811 126.822C16.4925 134.259 21.5639 138.59 28.522 141.344C28.3304 141.95 28.1223 142.635 27.8993 143.393C27.1237 146.029 26.147 149.623 25.0333 154.036C22.8051 162.865 20.0151 175.026 17.1774 189.442C11.504 218.265 5.62419 256.187 3.67336 294.598C1.72539 332.954 3.67868 372.064 13.8456 403.127C24.0333 434.254 42.6847 457.824 74.3284 463.798C74.5133 463.833 74.7017 463.851 74.8898 463.851H300.125M322.99 393.657L344.152 377.052C345.226 376.209 346.734 376.191 347.827 377.009C348.921 377.826 349.329 379.277 348.821 380.543L338.193 407.078M322.99 393.657L338.193 407.078M338.193 407.078C338.182 407.105 338.17 407.132 338.159 407.159L319.398 450.284M319.398 450.284L321.346 451.857C322.128 452.489 322.545 453.468 322.456 454.469C322.367 455.469 321.784 456.36 320.903 456.844L308.827 463.478C308.381 463.723 307.88 463.851 307.372 463.851H300.125M319.398 450.284L307.975 443.83M286.841 431.889L307.975 443.83M307.975 443.83L300.125 463.851" stroke="black" stroke-width="5" stroke-linecap="round" stroke-linejoin="round"/>
<path d="M71.6356 96.5018L40.4026 131.817C40.4026 131.817 35.7755 133.002 29.4132 130.632C23.0509 128.262 20.5593 127.964 20.1589 117.006C20.1589 111.082 23.0509 102.195 27.5323 95.1032C27.5323 95.1032 35.551 80.6511 47.5792 79.7187C59.6074 78.7863 71.6356 96.5018 71.6356 96.5018Z" fill="#5C3F3F"/>
<path d="M141.217 68.3828L116.131 76.7039C116.131 76.7039 110.235 74.8095 104.333 68.3825C98.4324 61.9554 92.8111 41.6907 98.4041 30.9554C101.673 25.2929 107.14 20.9335 116.131 17.0863C116.131 17.0863 127.074 10.1091 141.217 17.0863C155.36 24.0636 141.217 68.3828 141.217 68.3828Z" fill="#5C3F3F"/>
<path d="M322.368 81.5116C334.865 83.7151 343.996 94.8954 349.064 110.012C354.166 125.232 355.408 145.062 351.727 165.935C348.047 186.809 340.098 205.018 330.097 217.575C320.165 230.047 307.761 237.431 295.264 235.227C282.767 233.024 273.636 221.843 268.568 206.726C263.466 191.505 262.224 171.676 265.905 150.802C269.585 129.929 277.534 111.72 287.534 99.1626C297.467 86.691 309.871 79.308 322.368 81.5116Z" fill="#5C3F3F" stroke="black" stroke-width="5"/>
<path d="M229.556 287.324L222.879 298.773L207.097 306.004L209.222 287.324H229.556Z" fill="#5C3F3F"/>
<path d="M314.5 280.965L294.5 274.5V300.5L312.712 296.984L314.5 280.965Z" fill="#D0A38F"/>
<path d="M326.672 294.555L331.528 287.324L324.852 284.311L314.5 280.965L312.712 296.984L326.672 294.555Z" fill="#5C3F3F"/>
<path d="M292.682 136.079L309.07 150.541M323.031 148.131L337.598 133.066M315.14 157.169L312.712 218.029M188.888 287.324H209.222M191.316 313.235L207.097 306.004M209.222 287.324H229.556L222.879 298.773L207.097 306.004M209.222 287.324L207.097 306.004M314.5 280.965L324.852 284.311L331.528 287.324L326.672 294.555L312.712 296.984M314.5 280.965L294.5 274.5V300.5L312.712 296.984M314.5 280.965L312.712 296.984" stroke="black" stroke-width="5" stroke-linecap="round" stroke-linejoin="round"/>
<path d="M196.514 150.225L124.065 156.898" stroke="black" stroke-width="8" stroke-linecap="round" stroke-linejoin="round"/>
<path d="M254.426 378.915C268.354 370.873 282.69 366.83 294.535 366.689C306.471 366.547 315.286 370.328 319.246 377.187C323.206 384.046 322.073 393.571 315.982 403.836C309.938 414.024 299.268 424.418 285.34 432.459C271.411 440.501 257.075 444.544 245.23 444.685C233.295 444.827 224.48 441.046 220.519 434.187C216.559 427.328 217.692 417.803 223.783 407.537C229.828 397.35 240.497 386.956 254.426 378.915Z" fill="#7F7B6B" stroke="black" stroke-width="5" stroke-linejoin="round"/>
<path d="M251.425 369.915C265.354 361.874 279.69 357.83 291.535 357.689C303.47 357.547 312.286 361.328 316.246 368.187C320.206 375.047 319.073 384.572 312.982 394.837C306.937 405.024 296.268 415.418 282.339 423.46C268.411 431.501 254.075 435.544 242.23 435.686C230.295 435.828 221.479 432.047 217.519 425.187C213.559 418.328 214.692 408.803 220.783 398.538C226.827 388.35 237.497 377.957 251.425 369.915Z" fill="#FFD814" stroke="black" stroke-width="5" stroke-linejoin="round"/>
<path d="M257.713 376.702L283.767 410.886" stroke="black" stroke-width="5" stroke-linecap="round" stroke-linejoin="round"/>
<path d="M280.074 375.766C253.96 385.386 247.97 390.928 245.657 400.959C247.785 406.314 259.359 402.805 259.359 402.805C259.359 402.805 273.868 393.237 282.458 389.469C282.458 389.469 286.604 387.075 293.822 390.003C301.041 392.931 266.08 414.446 266.08 414.446" stroke="black" stroke-width="5" stroke-linecap="round" stroke-linejoin="round"/>
<path d="M249.426 358.915C263.354 350.873 277.69 346.83 289.535 346.689C301.471 346.547 310.286 350.328 314.246 357.187C318.206 364.046 317.073 373.571 310.982 383.836C304.938 394.024 294.268 404.418 280.34 412.459C266.411 420.501 252.075 424.544 240.23 424.685C228.295 424.827 219.48 421.046 215.519 414.187C211.559 407.328 212.692 397.803 218.783 387.537C224.828 377.35 235.497 366.956 249.426 358.915Z" fill="#7F7B6B" stroke="black" stroke-width="5" stroke-linejoin="round"/>
<path d="M246.425 349.915C260.354 341.874 274.69 337.83 286.535 337.689C298.47 337.547 307.286 341.328 311.246 348.187C315.206 355.047 314.073 364.572 307.982 374.837C301.937 385.024 291.268 395.418 277.339 403.46C263.411 411.501 249.075 415.544 237.23 415.686C225.295 415.828 216.479 412.047 212.519 405.187C208.559 398.328 209.692 388.803 215.783 378.538C221.827 368.35 232.497 357.957 246.425 349.915Z" fill="#FFD814" stroke="black" stroke-width="5" stroke-linejoin="round"/>
<path d="M252.713 356.702L278.767 390.886" stroke="black" stroke-width="5" stroke-linecap="round" stroke-linejoin="round"/>
<path d="M275.074 355.766C248.96 365.386 242.97 370.928 240.657 380.959C242.785 386.314 254.359 382.805 254.359 382.805C254.359 382.805 268.868 373.237 277.458 369.469C277.458 369.469 281.604 367.075 288.822 370.003C296.041 372.931 261.08 394.446 261.08 394.446" stroke="black" stroke-width="5" stroke-linecap="round" stroke-linejoin="round"/>
<path d="M244.426 337.915C258.354 329.873 272.69 325.83 284.535 325.689C296.471 325.547 305.286 329.328 309.246 336.187C313.206 343.046 312.073 352.571 305.982 362.836C299.938 373.024 289.268 383.418 275.34 391.459C261.411 399.501 247.075 403.544 235.23 403.685C223.295 403.827 214.48 400.046 210.519 393.187C206.559 386.328 207.692 376.803 213.783 366.537C219.828 356.35 230.497 345.956 244.426 337.915Z" fill="#7F7B6B" stroke="black" stroke-width="5" stroke-linejoin="round"/>
<path d="M241.425 328.915C255.354 320.874 269.69 316.83 281.535 316.689C293.47 316.547 302.286 320.328 306.246 327.187C310.206 334.047 309.073 343.572 302.982 353.837C296.937 364.024 286.268 374.418 272.339 382.46C258.411 390.501 244.075 394.544 232.23 394.686C220.295 394.828 211.479 391.047 207.519 384.187C203.559 377.328 204.692 367.803 210.783 357.538C216.827 347.35 227.497 336.957 241.425 328.915Z" fill="#FFD814" stroke="black" stroke-width="5" stroke-linejoin="round"/>
<path d="M247.713 335.702L273.767 369.886" stroke="black" stroke-width="5" stroke-linecap="round" stroke-linejoin="round"/>
<path d="M270.074 334.766C243.96 344.386 237.97 349.928 235.657 359.959C237.785 365.314 249.359 361.805 249.359 361.805C249.359 361.805 263.868 352.237 272.458 348.469C272.458 348.469 276.604 346.075 283.822 349.003C291.041 351.931 256.08 373.446 256.08 373.446" stroke="black" stroke-width="5" stroke-linecap="round" stroke-linejoin="round"/>
</g>
<path d="M209.5 118.423C178.5 84.5 91.1024 118.367 96 159C98.8928 183 148.267 210.876 176.5 203C202 195.886 220.078 129.997 209.5 118.423Z" fill="#121212"/>
<path d="M265.94 251.109C274.653 255.91 283.595 258.593 295.896 257.774L295.906 257.773C297.884 257.638 299.691 256.612 300.908 255.047L309.5 244L272.988 243.026C272.331 243.009 271.679 242.917 271.039 242.768C265.428 241.466 260.432 241.166 260 241C257.949 240.209 258.173 241.819 259.419 244.006C261.452 245.825 263.596 248.115 265.94 251.109Z" fill="#FF5457" fill-opacity="0.78"/>
<path d="M265.94 251.109C274.653 255.91 283.595 258.593 295.896 257.774M265.94 251.109C263.596 248.115 261.452 245.825 259.419 244.006M265.94 251.109C263.7 249.874 260.869 246.55 259.419 244.006M295.896 257.774C295.899 257.774 295.903 257.773 295.906 257.773M295.896 257.774L295.906 257.773M300.908 255.047L309.5 244L272.988 243.026C272.331 243.009 271.679 242.917 271.039 242.768C265.428 241.466 260.432 241.166 260 241M300.908 255.047C299.691 256.612 297.884 257.638 295.906 257.773M300.908 255.047V255.047C299.689 256.614 297.887 257.641 295.906 257.773V257.773M260 241V241C257.327 239.854 256.516 241.513 258.728 243.401C258.957 243.597 259.187 243.798 259.419 244.006M260 241C257.949 240.209 258.173 241.819 259.419 244.006M96 159C91.1024 118.367 178.5 84.5 209.5 118.423C220.078 129.997 202 195.886 176.5 203C148.267 210.876 98.8928 183 96 159Z" stroke="black" stroke-width="5" stroke-linecap="round" stroke-linejoin="round"/>
<path d="M9 221.5C30.4399 232.992 143.5 156 169.5 130.5C195.5 105 202.5 87.5001 212.5 65.0001" stroke="#121212" stroke-width="5"/>
<defs>
<filter id="filter0_d_45_19" x="0.499878" y="0.921387" width="379.851" height="495.43" filterUnits="userSpaceOnUse" color-interpolation-filters="sRGB">
<feFlood flood-opacity="0" result="BackgroundImageFix"/>
<feColorMatrix in="SourceAlpha" type="matrix" values="0 0 0 0 0 0 0 0 0 0 0 0 0 0 0 0 0 0 127 0" result="hardAlpha"/>
<feOffset dx="20" dy="26"/>
<feGaussianBlur stdDeviation="2"/>
<feComposite in2="hardAlpha" operator="out"/>
<feColorMatrix type="matrix" values="0 0 0 0 0 0 0 0 0 0 0 0 0 0 0 0 0 0 0.25 0"/>
<feBlend mode="normal" in2="BackgroundImageFix" result="effect1_dropShadow_45_19"/>
<feBlend mode="normal" in="SourceGraphic" in2="effect1_dropShadow_45_19" result="shape"/>
</filter>
</defs>
</svg>
